<?xml version="1.0" encoding="UTF-8"?><svg id="Layer_3" xmlns="http://www.w3.org/2000/svg" xmlns:xlink="http://www.w3.org/1999/xlink" viewBox="0 0 1000 600"><defs><style>.cls-1{stroke:#7ec8ef;}.cls-1,.cls-2,.cls-3,.cls-4,.cls-5{stroke-width:2.94px;}.cls-1,.cls-2,.cls-3,.cls-4,.cls-5,.cls-6,.cls-7{fill:none;stroke-miterlimit:10;}.cls-8{fill:#f58620;}.cls-9{fill:#d8e5ed;}.cls-10{fill:#ff6440;}.cls-2{stroke:#3dc7c9;}.cls-11{fill:#dbdac6;}.cls-12{fill:#2162a3;}.cls-13{fill:#d1320b;}.cls-14{fill:#9fc400;}.cls-15{fill:#194866;}.cls-16{fill:#879ba6;}.cls-17{fill:#e2c59c;}.cls-18{fill:#17d0b4;}.cls-19{fill:url(#linear-gradient-8);}.cls-20{fill:url(#linear-gradient-7);}.cls-21{fill:url(#linear-gradient-5);}.cls-22{fill:url(#linear-gradient-6);}.cls-23{fill:url(#linear-gradient-9);}.cls-24{fill:url(#linear-gradient-4);}.cls-25{fill:url(#linear-gradient-3);}.cls-26{fill:url(#linear-gradient-2);}.cls-27{fill:#86bbd8;}.cls-28{fill:#4eb3d7;}.cls-29{fill:#1f6cd1;}.cls-30{fill:#e1eefe;}.cls-3{stroke:#f1fafc;}.cls-31{fill:#2c7eea;}.cls-32{fill:url(#linear-gradient);}.cls-33{fill:#596273;}.cls-34{opacity:.34;}.cls-34,.cls-35{fill:#fff;}.cls-36{fill:#ff3d0d;}.cls-37{fill:#cc5073;}.cls-38{isolation:isolate;}.cls-39{fill:#c3d80e;}.cls-4{stroke:#2c7eea;}.cls-40{fill:#6e57da;}.cls-41{fill:#e9d6b8;}.cls-42{fill:#0095ef;}.cls-43{fill:#effaff;}.cls-44{fill:#c4d1e1;}.cls-45{clip-path:url(#clippath-1);}.cls-46{clip-path:url(#clippath-3);}.cls-47{clip-path:url(#clippath-2);}.cls-48{fill:#316091;}.cls-49{fill:url(#New_Gradient_Swatch_81);}.cls-50{fill:url(#New_Gradient_Swatch_68);}.cls-51{fill:#d0dee6;}.cls-52{fill:#74b2e8;}.cls-53{fill:#161711;}.cls-54{fill:#d1dbea;}.cls-55{fill:#b0bfde;}.cls-56{fill:#ffa813;}.cls-57{fill:#4db544;}.cls-58{fill:#007fcf;}.cls-59{fill:#d9e1e4;}.cls-60{fill:#b7bec0;}.cls-61{fill:#15100c;}.cls-62{fill:#acd5f4;}.cls-63{fill:url(#linear-gradient-43);}.cls-64{fill:url(#linear-gradient-40);}.cls-65{fill:url(#linear-gradient-41);}.cls-66{fill:url(#linear-gradient-42);}.cls-67{fill:url(#linear-gradient-49);}.cls-68{fill:url(#linear-gradient-48);}.cls-69{fill:url(#linear-gradient-45);}.cls-70{fill:url(#linear-gradient-47);}.cls-71{fill:url(#linear-gradient-44);}.cls-72{fill:url(#linear-gradient-46);}.cls-73{fill:url(#linear-gradient-10);}.cls-74{fill:url(#linear-gradient-11);}.cls-75{fill:url(#linear-gradient-12);}.cls-76{fill:url(#linear-gradient-13);}.cls-77{fill:url(#linear-gradient-19);}.cls-78{fill:url(#linear-gradient-14);}.cls-79{fill:url(#linear-gradient-21);}.cls-80{fill:url(#linear-gradient-20);}.cls-81{fill:url(#linear-gradient-22);}.cls-82{fill:url(#linear-gradient-23);}.cls-83{fill:url(#linear-gradient-28);}.cls-84{fill:url(#linear-gradient-25);}.cls-85{fill:url(#linear-gradient-32);}.cls-86{fill:url(#linear-gradient-31);}.cls-87{fill:url(#linear-gradient-33);}.cls-88{fill:url(#linear-gradient-30);}.cls-89{fill:url(#linear-gradient-15);}.cls-90{fill:url(#linear-gradient-16);}.cls-91{fill:url(#linear-gradient-17);}.cls-92{fill:url(#linear-gradient-18);}.cls-93{fill:url(#linear-gradient-35);}.cls-94{fill:url(#linear-gradient-34);}.cls-95{fill:url(#linear-gradient-36);}.cls-96{fill:url(#linear-gradient-38);}.cls-97{fill:url(#linear-gradient-27);}.cls-98{fill:url(#linear-gradient-24);}.cls-99{fill:url(#linear-gradient-26);}.cls-100{fill:url(#linear-gradient-29);}.cls-101{fill:url(#linear-gradient-37);}.cls-102{fill:url(#linear-gradient-39);}.cls-103{fill:url(#linear-gradient-57);}.cls-104{fill:url(#linear-gradient-58);}.cls-105{fill:url(#linear-gradient-59);}.cls-106{fill:url(#linear-gradient-53);}.cls-107{fill:url(#linear-gradient-54);}.cls-108{fill:url(#linear-gradient-55);}.cls-109{fill:url(#linear-gradient-56);}.cls-110{fill:url(#linear-gradient-50);}.cls-111{fill:url(#linear-gradient-51);}.cls-112{fill:url(#linear-gradient-52);}.cls-113{fill:url(#linear-gradient-67);}.cls-114{fill:url(#linear-gradient-68);}.cls-115{fill:url(#linear-gradient-69);}.cls-116{fill:url(#linear-gradient-63);}.cls-117{fill:url(#linear-gradient-64);}.cls-118{fill:url(#linear-gradient-65);}.cls-119{fill:url(#linear-gradient-66);}.cls-120{fill:url(#linear-gradient-60);}.cls-121{fill:url(#linear-gradient-61);}.cls-122{fill:url(#linear-gradient-62);}.cls-123{fill:url(#linear-gradient-79);}.cls-124{fill:url(#linear-gradient-78);}.cls-125{fill:url(#linear-gradient-75);}.cls-126{fill:url(#linear-gradient-72);}.cls-127{fill:url(#linear-gradient-77);}.cls-128{fill:url(#linear-gradient-74);}.cls-129{fill:url(#linear-gradient-76);}.cls-130{fill:url(#linear-gradient-71);}.cls-131{fill:url(#linear-gradient-73);}.cls-132{fill:url(#linear-gradient-70);}.cls-133{fill:url(#linear-gradient-85);}.cls-134{fill:url(#linear-gradient-83);}.cls-135{fill:url(#linear-gradient-82);}.cls-136{fill:url(#linear-gradient-84);}.cls-137{fill:url(#linear-gradient-86);}.cls-138{fill:url(#linear-gradient-81);}.cls-139{fill:url(#linear-gradient-80);}.cls-140{fill:#4e99ff;}.cls-141{fill:#bac2c6;}.cls-5{stroke:#e9d6b8;}.cls-142{fill:#4777e6;}.cls-143{fill:#474ec9;}.cls-144{fill:#081832;}.cls-145{fill:#3dc7c9;}.cls-146{fill:#86c0f0;}.cls-6{stroke-width:.14px;}.cls-6,.cls-7{stroke:#bac2c6;}.cls-7{stroke-width:.14px;}.cls-147{fill:#181863;}.cls-148{fill:url(#New_Gradient_Swatch_81-2);}.cls-149{fill:url(#New_Gradient_Swatch_81-4);}.cls-150{fill:url(#New_Gradient_Swatch_81-3);}.cls-151{fill:url(#New_Gradient_Swatch_68-2);}.cls-152{fill:#e4eef3;}.cls-153{fill:#edf4fc;}.cls-154{fill:#e4efff;}.cls-155{fill:#cdd5d7;}.cls-156{fill:#e8502e;}.cls-157{fill:#b6c2c9;}.cls-158{fill:#163f59;}.cls-159{fill:#ffcf33;}.cls-160{clip-path:url(#clippath);}.cls-161{fill:#bcd0e2;}</style><linearGradient id="linear-gradient" x1="855.65" y1="96.61" x2="855.65" y2="53.74" gradientTransform="translate(-36.76 22.03) rotate(-.5)" gradientUnits="userSpaceOnUse"><stop offset="0" stop-color="#b0bfde"/><stop offset="1" stop-color="#c4d1e1"/></linearGradient><clipPath id="clippath"><path class="cls-32" d="M810.69,66c4.93-.35,9.86-.71,14.78-1.07.83-.06,1.67-.09,2.52-.08l-14.78,1.07c-.85,0-1.69.02-2.52.09Z"/></clipPath><linearGradient id="linear-gradient-2" x1="855.32" y1="96.58" x2="855.32" y2="53.74" xlink:href="#linear-gradient"/><linearGradient id="linear-gradient-3" x1="856.58" y1="96.64" x2="856.58" y2="53.74" xlink:href="#linear-gradient"/><linearGradient id="linear-gradient-4" x1="877.01" y1="96.63" x2="877.01" y2="53.74" xlink:href="#linear-gradient"/><linearGradient id="linear-gradient-5" x1="877.01" y1="96.63" x2="877.01" y2="53.74" xlink:href="#linear-gradient"/><clipPath id="clippath-1"><path class="cls-21" d="M813.21,65.92l14.78-1.07c20.26.09,37.4,18.66,40.59,42.66l-14.78,1.07c-3.2-24-20.33-42.57-40.59-42.66Z"/></clipPath><linearGradient id="linear-gradient-6" x1="857.94" y1="96.62" x2="857.94" y2="53.74" xlink:href="#linear-gradient"/><linearGradient id="linear-gradient-7" x1="860.18" y1="96.61" x2="860.18" y2="53.74" xlink:href="#linear-gradient"/><linearGradient id="linear-gradient-8" x1="862.52" y1="96.63" x2="862.52" y2="53.74" xlink:href="#linear-gradient"/><linearGradient id="linear-gradient-9" x1="864.71" y1="96.61" x2="864.71" y2="53.74" xlink:href="#linear-gradient"/><linearGradient id="linear-gradient-10" x1="866.77" y1="96.65" x2="866.77" y2="53.74" xlink:href="#linear-gradient"/><linearGradient id="linear-gradient-11" x1="868.75" y1="96.63" x2="868.75" y2="53.74" xlink:href="#linear-gradient"/><linearGradient id="linear-gradient-12" x1="870.67" y1="96.61" x2="870.67" y2="53.74" xlink:href="#linear-gradient"/><linearGradient id="linear-gradient-13" x1="872.55" y1="96.65" x2="872.55" y2="53.74" xlink:href="#linear-gradient"/><linearGradient id="linear-gradient-14" x1="874.41" y1="96.65" x2="874.41" y2="53.74" xlink:href="#linear-gradient"/><linearGradient id="linear-gradient-15" x1="876.27" y1="96.62" x2="876.27" y2="53.74" xlink:href="#linear-gradient"/><linearGradient id="linear-gradient-16" x1="878.12" y1="96.61" x2="878.12" y2="53.74" xlink:href="#linear-gradient"/><linearGradient id="linear-gradient-17" x1="879.99" y1="96.64" x2="879.99" y2="53.74" xlink:href="#linear-gradient"/><linearGradient id="linear-gradient-18" x1="881.92" y1="96.62" x2="881.92" y2="53.74" xlink:href="#linear-gradient"/><linearGradient id="linear-gradient-19" x1="883.93" y1="96.61" x2="883.93" y2="53.75" xlink:href="#linear-gradient"/><linearGradient id="linear-gradient-20" x1="886.07" y1="96.63" x2="886.07" y2="53.74" xlink:href="#linear-gradient"/><linearGradient id="linear-gradient-21" x1="888.51" y1="96.64" x2="888.51" y2="53.74" xlink:href="#linear-gradient"/><linearGradient id="linear-gradient-22" x1="893.21" y1="96.63" x2="893.21" y2="53.74" xlink:href="#linear-gradient"/><linearGradient id="linear-gradient-23" x1="896.85" y1="96.64" x2="896.85" y2="53.74" xlink:href="#linear-gradient"/><linearGradient id="linear-gradient-24" x1="917.53" y1="131.55" x2="917.53" y2="96.9" xlink:href="#linear-gradient"/><linearGradient id="linear-gradient-25" x1="917.53" y1="131.55" x2="917.53" y2="96.9" xlink:href="#linear-gradient"/><clipPath id="clippath-2"><path class="cls-84" d="M859.52,107.39c4.93-.36,9.85-.71,14.78-1.07.54-.04,1.08-.06,1.63-.05,15.08.06,27.62,15.14,28.02,33.66.03,1.35-.02,2.67-.12,3.97l-14.78,1.07c.1-1.31.15-2.63.12-3.97-.4-18.52-12.94-33.6-28.02-33.66-.55,0-1.09.02-1.63.06Z"/></clipPath><linearGradient id="linear-gradient-26" x1="903.47" y1="131.52" x2="903.47" y2="96.89" xlink:href="#linear-gradient"/><linearGradient id="linear-gradient-27" x1="904.98" y1="131.51" x2="904.98" y2="96.89" xlink:href="#linear-gradient"/><linearGradient id="linear-gradient-28" x1="906.71" y1="131.5" x2="906.71" y2="96.89" xlink:href="#linear-gradient"/><linearGradient id="linear-gradient-29" x1="908.31" y1="131.52" x2="908.31" y2="96.89" xlink:href="#linear-gradient"/><linearGradient id="linear-gradient-30" x1="909.8" y1="131.51" x2="909.8" y2="96.89" xlink:href="#linear-gradient"/><linearGradient id="linear-gradient-31" x1="911.2" y1="131.52" x2="911.2" y2="96.89" xlink:href="#linear-gradient"/><linearGradient id="linear-gradient-32" x1="912.56" y1="131.55" x2="912.56" y2="96.9" xlink:href="#linear-gradient"/><linearGradient id="linear-gradient-33" x1="913.87" y1="131.52" x2="913.87" y2="96.89" xlink:href="#linear-gradient"/><linearGradient id="linear-gradient-34" x1="915.15" y1="131.55" x2="915.15" y2="96.9" xlink:href="#linear-gradient"/><linearGradient id="linear-gradient-35" x1="916.42" y1="131.57" x2="916.42" y2="96.9" xlink:href="#linear-gradient"/><linearGradient id="linear-gradient-36" x1="917.68" y1="131.55" x2="917.68" y2="96.9" xlink:href="#linear-gradient"/><linearGradient id="linear-gradient-37" x1="918.95" y1="131.54" x2="918.95" y2="96.9" xlink:href="#linear-gradient"/><linearGradient id="linear-gradient-38" x1="920.23" y1="131.56" x2="920.23" y2="96.9" xlink:href="#linear-gradient"/><linearGradient id="linear-gradient-39" x1="921.53" y1="131.56" x2="921.53" y2="96.9" xlink:href="#linear-gradient"/><linearGradient id="linear-gradient-40" x1="922.9" y1="131.56" x2="922.9" y2="96.9" xlink:href="#linear-gradient"/><linearGradient id="linear-gradient-41" x1="924.36" y1="131.56" x2="924.36" y2="96.9" xlink:href="#linear-gradient"/><linearGradient id="linear-gradient-42" x1="926.02" y1="131.55" x2="926.02" y2="96.9" xlink:href="#linear-gradient"/><linearGradient id="linear-gradient-43" x1="929.21" y1="131.55" x2="929.21" y2="96.9" xlink:href="#linear-gradient"/><linearGradient id="linear-gradient-44" x1="931.75" y1="131.55" x2="931.75" y2="96.9" xlink:href="#linear-gradient"/><linearGradient id="linear-gradient-45" x1="932.09" y1="131.56" x2="932.09" y2="96.88" xlink:href="#linear-gradient"/><linearGradient id="linear-gradient-46" x1="932.19" y1="131.55" x2="932.19" y2="96.9" xlink:href="#linear-gradient"/><linearGradient id="linear-gradient-47" x1="932.15" y1="131.55" x2="932.15" y2="96.91" xlink:href="#linear-gradient"/><linearGradient id="linear-gradient-48" x1="932.07" y1="131.55" x2="932.07" y2="96.92" xlink:href="#linear-gradient"/><linearGradient id="linear-gradient-49" x1="938.21" y1="155.71" x2="938.21" y2="134.46" xlink:href="#linear-gradient"/><linearGradient id="linear-gradient-50" x1="938.21" y1="155.71" x2="938.21" y2="134.46" xlink:href="#linear-gradient"/><clipPath id="clippath-3"><path class="cls-110" d="M904.91,174.58c-4.93.36-9.85.71-14.78,1.07,6.52-.47,11.55-7.12,11.38-15.28-.18-8.32-5.72-15.11-12.45-15.39l14.78-1.07c6.73.27,12.27,7.06,12.45,15.39.18,8.16-4.85,14.81-11.38,15.28Z"/></clipPath><linearGradient id="linear-gradient-51" x1="932.19" y1="155.72" x2="932.19" y2="134.47" xlink:href="#linear-gradient"/><linearGradient id="linear-gradient-52" x1="932.71" y1="155.72" x2="932.71" y2="134.47" xlink:href="#linear-gradient"/><linearGradient id="linear-gradient-53" x1="933.44" y1="155.67" x2="933.44" y2="134.46" xlink:href="#linear-gradient"/><linearGradient id="linear-gradient-54" x1="934.11" y1="155.72" x2="934.11" y2="134.47" xlink:href="#linear-gradient"/><linearGradient id="linear-gradient-55" x1="934.76" y1="155.7" x2="934.76" y2="134.46" xlink:href="#linear-gradient"/><linearGradient id="linear-gradient-56" x1="935.38" y1="155.68" x2="935.38" y2="134.46" xlink:href="#linear-gradient"/><linearGradient id="linear-gradient-57" x1="935.98" y1="155.68" x2="935.98" y2="134.46" xlink:href="#linear-gradient"/><linearGradient id="linear-gradient-58" x1="936.57" y1="155.7" x2="936.57" y2="134.46" xlink:href="#linear-gradient"/><linearGradient id="linear-gradient-59" x1="937.15" y1="155.74" x2="937.15" y2="134.47" xlink:href="#linear-gradient"/><linearGradient id="linear-gradient-60" x1="937.72" y1="155.72" x2="937.72" y2="134.46" xlink:href="#linear-gradient"/><linearGradient id="linear-gradient-61" x1="938.3" y1="155.71" x2="938.3" y2="134.46" xlink:href="#linear-gradient"/><linearGradient id="linear-gradient-62" x1="938.89" y1="155.72" x2="938.89" y2="134.46" xlink:href="#linear-gradient"/><linearGradient id="linear-gradient-63" x1="939.49" y1="155.72" x2="939.49" y2="134.46" xlink:href="#linear-gradient"/><linearGradient id="linear-gradient-64" x1="940.11" y1="155.71" x2="940.11" y2="134.46" xlink:href="#linear-gradient"/><linearGradient id="linear-gradient-65" x1="940.78" y1="155.71" x2="940.78" y2="134.46" xlink:href="#linear-gradient"/><linearGradient id="linear-gradient-66" x1="941.53" y1="155.69" x2="941.53" y2="134.47" xlink:href="#linear-gradient"/><linearGradient id="linear-gradient-67" x1="942.99" y1="155.71" x2="942.99" y2="134.46" xlink:href="#linear-gradient"/><linearGradient id="linear-gradient-68" x1="944.15" y1="155.7" x2="944.15" y2="134.47" xlink:href="#linear-gradient"/><linearGradient id="linear-gradient-69" x1="944.31" y1="155.71" x2="944.31" y2="134.46" xlink:href="#linear-gradient"/><linearGradient id="linear-gradient-70" x1="944.36" y1="155.71" x2="944.36" y2="134.46" xlink:href="#linear-gradient"/><linearGradient id="linear-gradient-71" x1="944.34" y1="155.7" x2="944.34" y2="134.47" xlink:href="#linear-gradient"/><linearGradient id="linear-gradient-72" x1="944.28" y1="155.7" x2="944.28" y2="134.47" xlink:href="#linear-gradient"/><linearGradient id="linear-gradient-73" x1="944.18" y1="155.71" x2="944.18" y2="134.46" xlink:href="#linear-gradient"/><linearGradient id="linear-gradient-74" x1="944.05" y1="155.7" x2="944.05" y2="134.47" xlink:href="#linear-gradient"/><linearGradient id="linear-gradient-75" x1="943.89" y1="155.7" x2="943.89" y2="134.48" xlink:href="#linear-gradient"/><linearGradient id="linear-gradient-76" x1="943.71" y1="155.7" x2="943.71" y2="134.47" xlink:href="#linear-gradient"/><linearGradient id="linear-gradient-77" x1="943.49" y1="155.7" x2="943.49" y2="134.48" xlink:href="#linear-gradient"/><linearGradient id="linear-gradient-78" x1="943.24" y1="155.7" x2="943.24" y2="134.46" xlink:href="#linear-gradient"/><linearGradient id="linear-gradient-79" x1="942.96" y1="155.71" x2="942.96" y2="134.47" xlink:href="#linear-gradient"/><linearGradient id="linear-gradient-80" x1="942.64" y1="155.7" x2="942.64" y2="134.48" xlink:href="#linear-gradient"/><linearGradient id="linear-gradient-81" x1="942.27" y1="155.71" x2="942.27" y2="134.48" xlink:href="#linear-gradient"/><linearGradient id="linear-gradient-82" x1="941.85" y1="155.71" x2="941.85" y2="134.48" xlink:href="#linear-gradient"/><linearGradient id="linear-gradient-83" x1="941.35" y1="155.71" x2="941.35" y2="134.47" xlink:href="#linear-gradient"/><linearGradient id="linear-gradient-84" x1="940.74" y1="155.71" x2="940.74" y2="134.45" xlink:href="#linear-gradient"/><linearGradient id="linear-gradient-85" x1="939.94" y1="155.71" x2="939.94" y2="134.49" xlink:href="#linear-gradient"/><linearGradient id="linear-gradient-86" x1="936.16" y1="155.71" x2="936.16" y2="134.47" xlink:href="#linear-gradient"/><linearGradient id="New_Gradient_Swatch_81" x1="155.69" y1="335.32" x2="194.35" y2="335.32" gradientUnits="userSpaceOnUse"><stop offset="0" stop-color="#12c0ae"/><stop offset="1" stop-color="#28acbd"/></linearGradient><linearGradient id="New_Gradient_Swatch_81-2" x1="186.65" y1="332.31" x2="192.32" y2="332.31" xlink:href="#New_Gradient_Swatch_81"/><linearGradient id="New_Gradient_Swatch_81-3" x1="139.36" y1="328.69" x2="149.16" y2="328.69" xlink:href="#New_Gradient_Swatch_81"/><linearGradient id="New_Gradient_Swatch_81-4" x1="149.72" y1="327.64" x2="153.31" y2="327.64" xlink:href="#New_Gradient_Swatch_81"/><linearGradient id="New_Gradient_Swatch_68" x1="630.37" y1="443.22" x2="689.49" y2="443.22" gradientUnits="userSpaceOnUse"><stop offset="0" stop-color="#f95830"/><stop offset="1" stop-color="#e04037"/></linearGradient><linearGradient id="New_Gradient_Swatch_68-2" x1="630.37" y1="453.13" x2="689.49" y2="453.13" xlink:href="#New_Gradient_Swatch_68"/></defs><rect class="cls-153" x="102.27" y="130.85" width="166.51" height="190.5"/><rect class="cls-59" x="126.67" y="151.35" width="76.25" height="3.14"/><rect class="cls-59" x="126.67" y="144.66" width="24.7" height="3.14"/><rect class="cls-7" x="129.65" y="161.04" width="119.07" height="134.98"/><line class="cls-6" x1="129.65" y1="276.74" x2="248.72" y2="276.74"/><line class="cls-6" x1="129.65" y1="257.46" x2="248.72" y2="257.46"/><line class="cls-6" x1="129.65" y1="238.17" x2="248.72" y2="238.17"/><line class="cls-6" x1="129.65" y1="218.89" x2="248.72" y2="218.89"/><line class="cls-6" x1="129.65" y1="199.61" x2="248.72" y2="199.61"/><line class="cls-6" x1="129.65" y1="180.33" x2="248.72" y2="180.33"/><line class="cls-6" x1="209.03" y1="161.04" x2="209.03" y2="296.02"/><line class="cls-6" x1="169.34" y1="161.04" x2="169.34" y2="296.02"/><line class="cls-6" x1="129.65" y1="161.04" x2="123.49" y2="167.2"/><line class="cls-6" x1="129.65" y1="180.33" x2="123.49" y2="186.48"/><line class="cls-6" x1="129.65" y1="199.61" x2="123.49" y2="205.77"/><line class="cls-6" x1="129.65" y1="218.89" x2="123.49" y2="225.05"/><line class="cls-6" x1="129.65" y1="238.17" x2="123.49" y2="244.33"/><line class="cls-6" x1="129.65" y1="257.46" x2="123.49" y2="263.62"/><line class="cls-6" x1="129.65" y1="276.74" x2="123.49" y2="282.9"/><path class="cls-141" d="M118.02,283.43h-.01l-.61.33-.09-.36.76-.41h.4v3.5h-.46v-3.06Z"/><path class="cls-141" d="M122.08,284.71c0,1.19-.44,1.85-1.22,1.85-.68,0-1.15-.64-1.16-1.8,0-1.17.51-1.82,1.22-1.82s1.16.66,1.16,1.77ZM120.18,284.76c0,.91.28,1.43.71,1.43.48,0,.72-.57.72-1.46s-.22-1.43-.71-1.43c-.42,0-.72.51-.72,1.46Z"/><path class="cls-141" d="M116.99,267.35v-.29l.37-.36c.89-.85,1.3-1.3,1.3-1.83,0-.36-.17-.68-.69-.68-.32,0-.58.16-.74.3l-.15-.33c.24-.2.59-.36.99-.36.75,0,1.07.52,1.07,1.02,0,.65-.47,1.17-1.21,1.88l-.28.26h0s1.57.01,1.57.01v.39h-2.23Z"/><path class="cls-141" d="M122.08,265.56c0,1.19-.44,1.85-1.22,1.85-.68,0-1.15-.64-1.16-1.8,0-1.17.51-1.82,1.22-1.82s1.16.66,1.16,1.77ZM120.18,265.61c0,.91.28,1.43.71,1.43.48,0,.72-.57.72-1.46s-.22-1.43-.71-1.43c-.42,0-.72.51-.72,1.46Z"/><path class="cls-141" d="M117.11,247.66c.13.09.45.22.78.22.61,0,.8-.39.79-.68,0-.49-.45-.7-.9-.7h-.26v-.36h.26c.34,0,.78-.18.78-.59,0-.28-.18-.53-.61-.53-.28,0-.55.12-.7.23l-.12-.34c.18-.13.54-.27.92-.27.69,0,1,.41,1,.83,0,.36-.21.67-.65.82h0c.43.1.78.42.78.91,0,.56-.44,1.05-1.28,1.05-.39,0-.74-.12-.91-.24l.13-.37Z"/><path class="cls-141" d="M122.08,246.41c0,1.19-.44,1.85-1.22,1.85-.68,0-1.15-.64-1.16-1.8,0-1.17.51-1.82,1.22-1.82s1.16.66,1.16,1.77ZM120.18,246.47c0,.91.28,1.43.71,1.43.48,0,.72-.57.72-1.46s-.22-1.43-.71-1.43c-.42,0-.72.51-.72,1.46Z"/><path class="cls-141" d="M118.46,229.06v-.95h-1.63v-.31l1.56-2.24h.51v2.18h.49v.37h-.49v.95h-.45ZM118.46,227.73v-1.17c0-.18,0-.37.02-.55h-.02c-.11.2-.19.36-.29.52l-.86,1.19h0s1.15.01,1.15.01Z"/><path class="cls-141" d="M122.08,227.27c0,1.19-.44,1.85-1.22,1.85-.68,0-1.15-.64-1.16-1.8,0-1.17.51-1.82,1.22-1.82s1.16.66,1.16,1.77ZM120.18,227.32c0,.91.28,1.43.71,1.43.48,0,.72-.57.72-1.46s-.22-1.43-.71-1.43c-.42,0-.72.51-.72,1.46Z"/><path class="cls-141" d="M119.08,206.81h-1.34l-.13.9c.08-.01.16-.02.29-.02.27,0,.54.06.75.19.28.16.5.46.5.9,0,.68-.54,1.2-1.3,1.2-.38,0-.71-.11-.87-.22l.12-.36c.15.09.43.19.75.19.45,0,.83-.29.83-.76,0-.45-.31-.78-1.01-.78-.2,0-.36.02-.48.04l.23-1.68h1.68v.4Z"/><path class="cls-141" d="M122.08,208.12c0,1.19-.44,1.85-1.22,1.85-.68,0-1.15-.64-1.16-1.8,0-1.17.51-1.82,1.22-1.82s1.16.66,1.16,1.77ZM120.18,208.18c0,.91.28,1.43.71,1.43.48,0,.72-.57.72-1.46s-.22-1.43-.71-1.43c-.42,0-.72.51-.72,1.46Z"/><path class="cls-141" d="M118.99,187.6c-.1,0-.22,0-.36.02-.74.12-1.14.67-1.22,1.24h.02c.17-.22.46-.4.85-.4.62,0,1.06.45,1.06,1.13,0,.64-.44,1.23-1.16,1.23s-1.24-.58-1.24-1.49c0-.69.25-1.23.59-1.58.29-.29.68-.46,1.12-.52.14-.02.26-.03.34-.03v.39ZM118.86,189.62c0-.5-.29-.8-.72-.8-.29,0-.55.18-.68.43-.03.05-.05.12-.05.21.01.58.27,1,.77,1,.41,0,.68-.34.68-.84Z"/><path class="cls-141" d="M122.08,188.98c0,1.19-.44,1.85-1.22,1.85-.68,0-1.15-.64-1.16-1.8,0-1.17.51-1.82,1.22-1.82s1.16.66,1.16,1.77ZM120.18,189.03c0,.91.28,1.43.71,1.43.48,0,.72-.57.72-1.46s-.22-1.43-.71-1.43c-.42,0-.72.51-.72,1.46Z"/><path class="cls-141" d="M119.27,168.12v.31l-1.53,3.19h-.49l1.52-3.1h0s-1.71-.01-1.71-.01v-.39h2.21Z"/><path class="cls-141" d="M122.08,169.83c0,1.19-.44,1.85-1.22,1.85-.68,0-1.15-.64-1.16-1.8,0-1.17.51-1.82,1.22-1.82s1.16.66,1.16,1.77ZM120.18,169.88c0,.91.28,1.43.71,1.43.48,0,.72-.57.72-1.46s-.22-1.43-.71-1.43c-.42,0-.72.51-.72,1.46Z"/><rect class="cls-34" x="129.65" y="180.33" width="119.07" height="19.28"/><rect class="cls-34" x="129.65" y="218.89" width="119.07" height="19.28"/><rect class="cls-34" x="129.65" y="257.46" width="119.07" height="19.28"/><rect class="cls-62" x="129.65" y="180.33" width="53.5" height="3.08"/><rect class="cls-55" x="129.65" y="188.43" width="91.91" height="3.08"/><rect class="cls-54" x="129.65" y="196.53" width="32.76" height="3.08"/><rect class="cls-62" x="129.65" y="218.89" width="96.58" height="3.08"/><rect class="cls-55" x="129.65" y="226.99" width="39.69" height="3.08"/><rect class="cls-54" x="129.65" y="235.1" width="79.38" height="3.08"/><rect class="cls-62" x="129.65" y="257.71" width="39.69" height="3.08"/><rect class="cls-55" x="129.65" y="265.81" width="79.38" height="3.08"/><rect class="cls-54" x="129.65" y="273.91" width="65.52" height="3.08"/><path class="cls-154" d="M314.73,423.3c59.83,2.91,245.27,11.26,358.13,10.83,209.26-.81,378.34,30.31,265.06,48.13-31.66,4.98,56.15,50.88-165.11,47.32-194.23-3.13-390.74-31.82-485.9-44.76-95.17-12.94-138.52-28.65-158.65-35.76-17.71-6.26-22.66-35.92,186.48-25.75Z"/><path class="cls-154" d="M874.95,314.7c-2.03,2.37-3.33,6-3.33,10.08,0,6.09,2.91,11.2,6.82,12.57,2.03-2.37,3.33-6,3.33-10.08,0-6.1-2.91-11.21-6.82-12.57Z"/><path class="cls-154" d="M873.09,338.92c-3.07-3.79-7.19-5.91-10.71-5.89.16,2.9,1.43,6.15,3.75,9.01,3.07,3.79,7.19,5.91,10.71,5.89-.16-2.9-1.43-6.15-3.75-9.01Z"/><path class="cls-154" d="M877.89,351.66c-1.81-2.12-4.45-3.79-7.61-4.6-5.11-1.3-10.13.06-12.98,3.11,1.81,2.12,4.45,3.8,7.61,4.6,5.11,1.3,10.13-.06,12.98-3.11Z"/><path class="cls-154" d="M889.02,345.03c-4.74,1.43-8.2,4.82-9.33,8.61,2.99,1.74,7.05,2.22,11.1,1.01,4.74-1.43,8.2-4.82,9.33-8.61-2.99-1.74-7.05-2.23-11.1-1.01Z"/><path class="cls-154" d="M887.25,331.33c-3.63,2.06-5.92,5.49-6.39,9,2.83.61,6.03.16,8.92-1.47,3.64-2.07,5.9-5.52,6.34-9.06-2.82-.57-5.99-.1-8.87,1.53Z"/><rect class="cls-154" x="877.97" y="336.07" width=".58" height="47.71"/><rect class="cls-154" x="877.66" y="341.19" width="4.42" height=".58" transform="translate(-13.84 644.88) rotate(-39.96)"/><path class="cls-154" d="M863.69,365.2c3.42,2.39,7.51,2.97,10.88,1.89-.67-2.81-2.45-5.51-5.18-7.41-3.43-2.39-7.53-2.94-10.91-1.81.7,2.79,2.49,5.45,5.2,7.34Z"/><polygon class="cls-154" points="877.92 368.66 878.16 368.13 874.14 366.3 873.9 366.83 877.92 368.66"/><polygon class="cls-154" points="877.96 356.26 878.45 356.56 880.74 352.78 880.24 352.48 877.96 356.26"/><rect class="cls-154" x="877.06" y="347.13" width=".58" height="2.65" transform="translate(47.95 799.29) rotate(-50.19)"/><rect class="cls-154" x="877.57" y="351.59" width=".58" height=".8" transform="translate(238.12 1048.6) rotate(-69.29)"/><path class="cls-154" d="M883.43,358.15c3.07-3.79,7.19-5.91,10.71-5.89-.16,2.9-1.43,6.15-3.75,9.01-3.08,3.79-7.19,5.91-10.71,5.89.16-2.9,1.43-6.15,3.75-9.01Z"/><path class="cls-154" d="M878.62,370.89c1.81-2.12,4.45-3.8,7.61-4.6,5.11-1.3,10.13.06,12.98,3.11-1.81,2.12-4.45,3.8-7.61,4.6-5.11,1.3-10.13-.06-12.98-3.11Z"/><polygon class="cls-154" points="878.33 368.75 877.96 368.3 880 366.61 880.37 367.06 878.33 368.75"/><rect class="cls-154" x="878.25" y="370.93" width=".8" height=".59" transform="translate(-74.37 331.37) rotate(-20.51)"/><path class="cls-154" d="M875.52,376.83c-.97-1.73-2.58-3.27-4.67-4.27-3.38-1.61-7.08-1.37-9.49.36.97,1.73,2.58,3.27,4.67,4.27,3.39,1.62,7.08,1.37,9.49-.36Z"/><path class="cls-154" d="M829.66,415.38c16,2.37,14.01,12.9,15.16,15.28,8.22,16.98,9.96,21.61,28.98,17.29,9.45-2.14,7.48,13.3,29.87,10.16,16.55-2.32,24.41,8.9,32.32,8.16,12.95-1.21,25.03-20.88,19.69-26.54-3.04-3.23-28.23-5.58-13.64-11.59,18.2-7.5,11-12.95.75-10.97-4.08.78-42.05,5.09-35.05.08,25.61-18.35,8.08-17.22-8.39-10.03-9.09,3.97-16.91.37-17.92-2.38-2.66-7.2-20.84-8.41-29.48-10.52-37.63-9.19-56.65,15.98-22.3,21.06Z"/><path class="cls-55" d="M938.91,429.6c-9.6-3.02-19.08-2.36-27.01-.35,19.31-11.71,42.1-28.54,22.97-32.39-5.96-1.2-15.62,2.4-26.52,8.39,12.73-13.14,20.07-24.21,13.29-26.98-6.29-2.57-20.48,7.78-35.84,21.83,9.11-12.1,14.72-22.86,11.59-28.44-2.55-4.55-9.24-.17-17.23,8.35,1.02-8.01-.79-13.06-5.97-12.53-4.87.5-9.57,9.46-13.32,20.38-2.87-16.46-12.76-27.68-24.35-25.83l-5.69,65.17c.25,1.12.49,2.19.73,3.21,0,0,80.95,30.5,115.92,10.12,4.14-2.42.25-8.16-8.55-10.93Z"/><path class="cls-154" d="M165.73,503.08c27.52-1.21,51.8.49,67.84,3.21,16.18,2.78,24.11,6.57,22.06,10.88-2.06,4.35-13.5,8.71-28.92,13.11-15.53,4.34-35.04,8.73-55.92,11.77-40.66,6.29-79.32,2.91-89.53-9.7-10.28-12.53,28.2-27.19,84.47-29.27Z"/><path class="cls-54" d="M240.75,287.46c-42.82-5.72-82.32,24.48-88.02,67.3-5.72,42.81,24.48,82.29,67.29,88.01,42.83,5.7,82.31-24.48,88.03-67.3,5.71-42.82-24.49-82.31-67.3-88.02Z"/><path class="cls-55" d="M307.67,353.15l-8.1,11.18-14.26,21.35-5.31-15.16-11.6,5.76-5.49-13.79-7.12,6.94-2.97-1.18-9.35-5.14.56,10.53,7.17,3.99-17.43,30.63-6.29,2.95-3.73-12.71-.84-20.61-9.87-1.73-3.28-8.03,7.6-14.67,8.55-.84,4.7,4.07,12.6-1.37-12.45-9.15-10.96-3.41-.14-3.45,11.63-4.82-3.66-7.68,12.29-8.5,11.15,5.65,20.24-3.49s8.51-3.18,18.03-6.66c9.54,10.99,16.01,24.58,18.31,39.33Z"/><path class="cls-55" d="M189.66,298.31l-5.44,7.04-9.54,13c-.25.36-.3.82-.12,1.21l4.24,9.32c.18.38.65.66.95.69.41.04.82-.12,1.08-.44l5.52-6.86,7.68,12.34-19.83,13.5-10.16-.38c-.47-.02-.9.24-1.12.66l-2.96,5.86c-.19.37-.18.8.03,1.16l5.58,9.43-10.17-6.42-2.58-4.14c3.37-24.12,17.48-44.17,36.83-55.97Z"/><path class="cls-55" d="M174.86,392.93l-5.1-14.28,9.3-15.19,18.55,21.87-22.59,34.15-2.54-8.76,2.43-17.21c.03-.2.01-.39-.05-.57Z"/><path class="cls-55" d="M202.41,322.05l-6.34-19.47c13.51-4.76,22.21-5.08,25.52-4.96l-5.99,16.39-13.2,8.05Z"/><path class="cls-30" d="M598.43,219.7l3.61-14.37-7.28-3.59c.01-2.11-.12-4.23-.39-6.36l7.15-3.8-4.05-14.24-8.96.6c-.94-1.64-1.96-3.21-3.07-4.71l4.71-7.53-10.63-10.31-7.96,5.32c-1.47-.87-2.98-1.66-4.54-2.37l.33-9.37-14.36-3.61-4.29,8.72c-1.66-.05-3.34,0-5.03.13l-4.43-8.33-14.24,4.05.62,9.42c-1.59.82-3.13,1.73-4.59,2.71l-7.68-4.8-10.31,10.63,4.89,7.3c-1.1,1.66-2.1,3.38-2.99,5.16l-8.32-.29-3.61,14.36,7.09,3.49c-.17,2.24-.18,4.5-.02,6.78l-6.55,3.48,4.06,14.25,7.04-.46c1.1,2.29,2.36,4.47,3.78,6.52l-3.5,5.59,10.63,10.31,5.36-3.59c2.23,1.5,4.58,2.8,7.02,3.9l-.21,6.1,14.36,3.62,2.76-5.6c2.69.14,5.41.06,8.14-.27l2.85,5.36,14.24-4.05-.43-6.52c2.33-1.24,4.54-2.66,6.59-4.24l5.49,3.43,10.31-10.63-4.02-6.01c1.23-2.05,2.31-4.19,3.22-6.41l7.22.25ZM552.92,220.99c-10.79,3.07-22.02-3.18-25.09-13.97-3.07-10.79,3.19-22.02,13.97-25.09,10.79-3.07,22.02,3.18,25.09,13.97,3.07,10.79-3.19,22.02-13.97,25.09Z"/><path class="cls-54" d="M538.77,171.27c-16.68,4.75-26.35,22.11-21.6,38.79,4.75,16.67,22.12,26.34,38.79,21.6,16.67-4.75,26.34-22.11,21.6-38.79-4.75-16.68-22.12-26.35-38.79-21.6ZM554.17,225.39c-13.22,3.76-26.98-3.9-30.74-17.12-3.76-13.22,3.9-26.98,17.11-30.74,13.22-3.76,26.98,3.9,30.74,17.12,3.76,13.22-3.9,26.98-17.12,30.74Z"/><path class="cls-54" d="M703.51,160.46l3.64-14.46-7.33-3.61c.01-2.12-.12-4.26-.4-6.41l7.2-3.83-4.08-14.35-9.02.6c-.94-1.65-1.98-3.23-3.09-4.74l4.74-7.58-10.71-10.38-8.01,5.36c-1.48-.88-3.01-1.67-4.57-2.39l.33-9.44-14.46-3.64-4.32,8.79c-1.68-.05-3.37,0-5.06.13l-4.46-8.39-14.34,4.08.63,9.48c-1.61.83-3.15,1.74-4.63,2.73l-7.73-4.83-10.38,10.71,4.92,7.35c-1.11,1.67-2.12,3.4-3.01,5.2l-8.38-.29-3.64,14.46,7.14,3.51c-.17,2.25-.18,4.53-.02,6.83l-6.59,3.5,4.08,14.34,7.09-.47c1.1,2.31,2.38,4.51,3.8,6.57l-3.52,5.63,10.71,10.38,5.4-3.61c2.24,1.51,4.61,2.82,7.07,3.93l-.21,6.15,14.46,3.63,2.78-5.64c2.71.15,5.45.06,8.21-.27l2.86,5.38,14.35-4.08-.44-6.56c2.35-1.25,4.57-2.68,6.64-4.27l5.52,3.45,10.38-10.71-4.05-6.05c1.24-2.07,2.33-4.23,3.25-6.46l7.27.25ZM658.94,166.2c-13.31,3.79-27.17-3.93-30.95-17.23-3.79-13.31,3.92-27.17,17.24-30.96,13.3-3.79,27.17,3.93,30.96,17.24,3.79,13.31-3.93,27.16-17.24,30.95Z"/><path class="cls-55" d="M642.23,107.49c-19.12,5.44-30.2,25.35-24.76,44.47,5.44,19.12,25.35,30.2,44.47,24.75,19.12-5.44,30.2-25.35,24.76-44.47-5.44-19.12-25.35-30.2-44.47-24.76ZM659.89,169.53c-15.15,4.31-30.92-4.47-35.24-19.62-4.32-15.15,4.47-30.93,19.62-35.24,15.15-4.31,30.93,4.47,35.24,19.62,4.31,15.15-4.47,30.92-19.62,35.23Z"/><rect class="cls-48" x="243.52" y="210.41" width="439.39" height="247.42"/><rect class="cls-62" x="243.7" y="210.35" width="439.39" height="6.41"/><rect class="cls-27" x="251.47" y="213.3" width="10.57" height=".61"/><rect class="cls-27" x="265.05" y="213.3" width="10.57" height=".61"/><rect class="cls-27" x="278.63" y="213.3" width="10.58" height=".61"/><rect class="cls-27" x="292.22" y="213.3" width="10.58" height=".61"/><rect class="cls-27" x="305.79" y="213.3" width="10.58" height=".61"/><rect class="cls-27" x="319.37" y="213.3" width="10.58" height=".61"/><rect class="cls-27" x="332.95" y="213.3" width="10.58" height=".61"/><rect class="cls-27" x="346.54" y="213.3" width="10.58" height=".61"/><rect class="cls-27" x="246.78" y="212.52" width="1.99" height="2.17"/><rect class="cls-48" x="243.7" y="216.06" width="439.39" height="7.66"/><rect class="cls-15" x="653.61" y="217.73" width="27.88" height="4.83"/><rect class="cls-33" x="648.92" y="219.65" width="1.09" height=".99"/><rect class="cls-15" x="631.96" y="219.64" width="14.68" height="1"/><rect class="cls-146" x="253.45" y="218.87" width="1.99" height="2.17"/><rect class="cls-146" x="246.78" y="218.87" width="1.99" height="2.17"/><rect class="cls-146" x="257.82" y="218.87" width="1.99" height="2.17"/><line class="cls-2" x1="299.59" y1="230.21" x2="391.44" y2="230.21"/><line class="cls-4" x1="307.19" y1="241.03" x2="322.38" y2="241.03"/><line class="cls-4" x1="307.19" y1="251.85" x2="322.38" y2="251.85"/><line class="cls-4" x1="307.19" y1="262.67" x2="322.38" y2="262.67"/><line class="cls-2" x1="352.07" y1="241.03" x2="398.69" y2="241.03"/><line class="cls-2" x1="352.07" y1="251.85" x2="398.69" y2="251.85"/><line class="cls-2" x1="352.07" y1="262.67" x2="398.69" y2="262.67"/><line class="cls-3" x1="328.94" y1="241.03" x2="339.64" y2="241.03"/><line class="cls-3" x1="328.94" y1="251.85" x2="339.64" y2="251.85"/><line class="cls-3" x1="328.94" y1="262.67" x2="339.64" y2="262.67"/><line class="cls-5" x1="344.26" y1="241.03" x2="347.11" y2="241.03"/><line class="cls-5" x1="344.26" y1="251.85" x2="347.11" y2="251.85"/><line class="cls-5" x1="344.26" y1="262.67" x2="347.11" y2="262.67"/><line class="cls-5" x1="299.93" y1="241.03" x2="302.78" y2="241.03"/><line class="cls-5" x1="299.93" y1="251.85" x2="302.78" y2="251.85"/><line class="cls-5" x1="299.93" y1="262.67" x2="302.78" y2="262.67"/><line class="cls-4" x1="307.19" y1="284.31" x2="330.67" y2="284.31"/><line class="cls-2" x1="363.12" y1="284.31" x2="398.69" y2="284.31"/><line class="cls-3" x1="337.23" y1="284.31" x2="350.69" y2="284.31"/><line class="cls-5" x1="355.31" y1="284.31" x2="358.16" y2="284.31"/><line class="cls-2" x1="400.07" y1="305.95" x2="510.22" y2="305.95"/><line class="cls-3" x1="338.61" y1="305.95" x2="391.44" y2="305.95"/><line class="cls-2" x1="440.12" y1="284.31" x2="475.69" y2="284.31"/><line class="cls-3" x1="408.7" y1="284.31" x2="427.69" y2="284.31"/><line class="cls-5" x1="432.31" y1="284.31" x2="435.16" y2="284.31"/><line class="cls-5" x1="479.27" y1="284.31" x2="482.12" y2="284.31"/><line class="cls-5" x1="299.93" y1="284.31" x2="302.78" y2="284.31"/><line class="cls-4" x1="307.19" y1="327.59" x2="330.67" y2="327.59"/><line class="cls-3" x1="299.93" y1="327.59" x2="302.78" y2="327.59"/><line class="cls-3" x1="335.16" y1="327.59" x2="338" y2="327.59"/><line class="cls-4" x1="289.23" y1="370.87" x2="312.71" y2="370.87"/><line class="cls-3" x1="281.98" y1="370.87" x2="284.83" y2="370.87"/><line class="cls-3" x1="317.2" y1="370.87" x2="320.05" y2="370.87"/><line class="cls-5" x1="319.62" y1="316.77" x2="322.46" y2="316.77"/><line class="cls-4" x1="319.62" y1="295.13" x2="333.43" y2="295.13"/><line class="cls-5" x1="338.61" y1="295.13" x2="392.46" y2="295.13"/><line class="cls-2" x1="431.49" y1="241.03" x2="478.1" y2="241.03"/><line class="cls-2" x1="431.49" y1="251.85" x2="478.1" y2="251.85"/><line class="cls-2" x1="431.49" y1="262.67" x2="478.1" y2="262.67"/><line class="cls-2" x1="480.52" y1="241.03" x2="562.01" y2="241.03"/><line class="cls-2" x1="480.52" y1="251.85" x2="592.05" y2="251.85"/><line class="cls-2" x1="480.52" y1="262.67" x2="612.08" y2="262.67"/><line class="cls-3" x1="408.36" y1="241.03" x2="419.06" y2="241.03"/><line class="cls-3" x1="408.36" y1="251.85" x2="419.06" y2="251.85"/><line class="cls-3" x1="408.36" y1="262.67" x2="419.06" y2="262.67"/><line class="cls-5" x1="423.68" y1="241.03" x2="426.53" y2="241.03"/><line class="cls-5" x1="423.68" y1="251.85" x2="426.53" y2="251.85"/><line class="cls-5" x1="423.68" y1="262.67" x2="426.53" y2="262.67"/><line class="cls-5" x1="572.71" y1="241.03" x2="575.56" y2="241.03"/><line class="cls-5" x1="600.12" y1="251.85" x2="602.97" y2="251.85"/><line class="cls-5" x1="618.77" y1="262.67" x2="621.62" y2="262.67"/><line class="cls-1" x1="299.59" y1="273.49" x2="391.44" y2="273.49"/><line class="cls-4" x1="288.54" y1="393.88" x2="303.73" y2="393.88"/><line class="cls-4" x1="324.11" y1="415.52" x2="339.29" y2="415.52"/><line class="cls-2" x1="368.99" y1="415.52" x2="469.82" y2="415.52"/><line class="cls-3" x1="300.63" y1="404.7" x2="448.41" y2="404.7"/><line class="cls-3" x1="345.86" y1="415.52" x2="356.56" y2="415.52"/><line class="cls-5" x1="361.18" y1="415.52" x2="364.03" y2="415.52"/><line class="cls-5" x1="281.29" y1="393.88" x2="284.14" y2="393.88"/><line class="cls-5" x1="307.19" y1="393.88" x2="310.04" y2="393.88"/><line class="cls-4" x1="344.48" y1="426.34" x2="351.38" y2="426.34"/><line class="cls-5" x1="337.23" y1="426.34" x2="340.07" y2="426.34"/><line class="cls-5" x1="354.83" y1="426.34" x2="357.68" y2="426.34"/><line class="cls-4" x1="363.81" y1="447.98" x2="370.72" y2="447.98"/><line class="cls-5" x1="356.56" y1="447.98" x2="359.41" y2="447.98"/><line class="cls-5" x1="374.17" y1="447.98" x2="377.02" y2="447.98"/><line class="cls-5" x1="316.85" y1="415.52" x2="319.7" y2="415.52"/><line class="cls-3" x1="356.91" y1="437.16" x2="585.49" y2="437.16"/><line class="cls-5" x1="473.27" y1="415.52" x2="476.12" y2="415.52"/><line class="cls-1" x1="299.59" y1="338.41" x2="425.96" y2="338.41"/><line class="cls-1" x1="299.59" y1="349.23" x2="486.74" y2="349.23"/><line class="cls-1" x1="299.59" y1="360.05" x2="363.12" y2="360.05"/><line class="cls-4" x1="249.18" y1="230.21" x2="256.08" y2="230.21"/><line class="cls-4" x1="249.18" y1="241.03" x2="256.08" y2="241.03"/><line class="cls-4" x1="249.18" y1="251.85" x2="256.08" y2="251.85"/><line class="cls-4" x1="249.18" y1="262.67" x2="256.08" y2="262.67"/><line class="cls-4" x1="249.18" y1="273.49" x2="256.08" y2="273.49"/><line class="cls-4" x1="249.18" y1="284.31" x2="256.08" y2="284.31"/><line class="cls-4" x1="249.18" y1="295.13" x2="256.08" y2="295.13"/><line class="cls-4" x1="249.18" y1="305.95" x2="256.08" y2="305.95"/><line class="cls-4" x1="249.18" y1="316.77" x2="256.08" y2="316.77"/><line class="cls-4" x1="249.18" y1="327.59" x2="256.08" y2="327.59"/><line class="cls-4" x1="249.18" y1="338.41" x2="256.08" y2="338.41"/><line class="cls-4" x1="249.18" y1="349.23" x2="256.08" y2="349.23"/><line class="cls-4" x1="249.18" y1="360.05" x2="256.08" y2="360.05"/><line class="cls-4" x1="249.18" y1="370.87" x2="256.08" y2="370.87"/><line class="cls-4" x1="249.18" y1="381.69" x2="256.08" y2="381.69"/><line class="cls-4" x1="249.18" y1="392.51" x2="256.08" y2="392.51"/><line class="cls-4" x1="249.18" y1="403.33" x2="256.08" y2="403.33"/><rect class="cls-35" x="448.47" y="251.77" width="418.35" height="206.85"/><rect class="cls-62" x="457.69" y="281.5" width="202.48" height="113.55"/><rect class="cls-43" x="457.69" y="395.81" width="202.49" height="55.47"/><rect class="cls-52" x="664.29" y="281.5" width="194.64" height="53.37"/><path class="cls-62" d="M862.59,223.49h-409.95c-2.31,0-4.18,1.75-4.18,3.92v24.5h418.3v-24.5c0-2.16-1.87-3.92-4.18-3.92Z"/><path class="cls-27" d="M457.35,231.14c0,1.4-1.14,2.54-2.54,2.54s-2.53-1.14-2.53-2.54,1.13-2.53,2.53-2.53,2.54,1.14,2.54,2.53Z"/><path class="cls-27" d="M464.79,231.14c0,1.4-1.13,2.54-2.54,2.54s-2.53-1.14-2.53-2.54,1.13-2.53,2.53-2.53,2.54,1.14,2.54,2.53Z"/><path class="cls-27" d="M472.23,231.14c0,1.4-1.14,2.54-2.53,2.54s-2.53-1.14-2.53-2.54,1.13-2.53,2.53-2.53,2.53,1.14,2.53,2.53Z"/><rect class="cls-35" x="482.94" y="237.23" width="326.94" height="11"/><polygon class="cls-27" points="455.74 246.24 451.75 242.25 455.74 238.27 457.22 239.75 454.71 242.25 457.22 244.76 455.74 246.24"/><rect class="cls-27" x="454.11" y="241.2" width="7.36" height="2.09"/><polygon class="cls-27" points="472.62 246.24 471.14 244.76 473.64 242.25 471.14 239.75 472.62 238.27 476.6 242.25 472.62 246.24"/><rect class="cls-27" x="466.87" y="241.2" width="7.36" height="2.09"/><rect class="cls-52" x="814.15" y="237.23" width="32.12" height="9.81"/><rect class="cls-62" x="499.74" y="264.72" width="32.49" height="3.52"/><rect class="cls-62" x="537" y="264.72" width="32.48" height="3.52"/><rect class="cls-62" x="574.27" y="264.72" width="32.49" height="3.52"/><rect class="cls-62" x="611.54" y="264.72" width="32.48" height="3.52"/><rect class="cls-62" x="648.81" y="264.72" width="32.48" height="3.52"/><rect class="cls-62" x="804.81" y="258.84" width="52.45" height="2.64"/><rect class="cls-62" x="815.93" y="265.16" width="41.33" height="2.64"/><rect class="cls-52" x="457.69" y="261.78" width="34.34" height="9.39"/><rect class="cls-52" x="467.21" y="403.58" width="73.26" height="3.65"/><rect class="cls-62" x="467.21" y="411.4" width="177.76" height="2.74"/><rect class="cls-62" x="466.45" y="417.79" width="155.22" height="2.74"/><rect class="cls-52" x="465.83" y="428.58" width="35.63" height="9.74"/><rect class="cls-35" x="473.89" y="432.08" width="19.52" height="2.74"/><rect class="cls-35" x="672.25" y="292.31" width="74.64" height="3.65"/><rect class="cls-62" x="672.25" y="300.12" width="179.14" height="2.74"/><rect class="cls-62" x="672.25" y="306.52" width="155.84" height="2.74"/><rect class="cls-35" x="672.25" y="317.31" width="35.63" height="9.74"/><rect class="cls-51" x="680.31" y="320.81" width="19.51" height="2.74"/><rect class="cls-43" x="664.1" y="395.81" width="95.28" height="55.47"/><rect class="cls-52" x="673.14" y="403.58" width="54.65" height="3.65"/><rect class="cls-62" x="673.14" y="411.4" width="62.34" height="2.74"/><rect class="cls-62" x="672.87" y="417.79" width="54.44" height="2.74"/><rect class="cls-52" x="672.25" y="428.58" width="35.64" height="9.74"/><rect class="cls-35" x="680.31" y="432.08" width="19.51" height="2.74"/><rect class="cls-52" x="664.1" y="339.49" width="95.28" height="55.56"/><rect class="cls-43" x="763.85" y="395.81" width="95.27" height="55.47"/><rect class="cls-52" x="772.89" y="403.58" width="54.65" height="3.65"/><rect class="cls-62" x="772.89" y="411.4" width="62.35" height="2.74"/><rect class="cls-62" x="772.62" y="417.79" width="54.44" height="2.74"/><rect class="cls-52" x="771.99" y="428.58" width="35.64" height="9.74"/><rect class="cls-35" x="780.06" y="432.08" width="19.51" height="2.74"/><rect class="cls-52" x="763.85" y="339.49" width="95.27" height="55.56"/><path class="cls-62" d="M698.34,355.49v25.71h32.36v-25.71h-32.36ZM728.43,378.94h-27.83v-21.17h27.83v21.17Z"/><path class="cls-62" d="M711.8,362.98c0,1.46-1.19,2.65-2.65,2.65s-2.65-1.18-2.65-2.65,1.18-2.65,2.65-2.65,2.65,1.19,2.65,2.65Z"/><polygon class="cls-62" points="727.08 369.07 720.72 364.11 712.25 371.07 706.2 368.65 701.97 370.57 701.97 377.58 727.08 377.58 727.08 369.07"/><path class="cls-62" d="M797.79,355.49v25.71h32.37v-25.71h-32.37ZM827.89,378.94h-27.83v-21.17h27.83v21.17Z"/><path class="cls-62" d="M811.25,362.98c0,1.46-1.19,2.65-2.65,2.65s-2.65-1.18-2.65-2.65,1.19-2.65,2.65-2.65,2.65,1.19,2.65,2.65Z"/><polygon class="cls-62" points="826.53 369.07 820.18 364.11 811.71 371.07 805.66 368.65 801.42 370.57 801.42 377.58 826.53 377.58 826.53 369.07"/><path class="cls-35" d="M572.43,341.9v-2.83c0-.88-.71-1.6-1.59-1.6h-22.75c-.88,0-1.6.71-1.6,1.6v14.53c0,.88.72,1.6,1.6,1.6h22.75c.88,0,1.59-.71,1.59-1.6v-2.84l8.59,4.27v-17.39l-8.59,4.27Z"/><path class="cls-35" d="M552.72,336.86c3.01,0,5.45-2.44,5.45-5.45s-2.44-5.46-5.45-5.46-5.46,2.44-5.46,5.46,2.44,5.45,5.46,5.45Z"/><path class="cls-35" d="M564.43,336.86c3.01,0,5.45-2.44,5.45-5.45s-2.44-5.46-5.45-5.46-5.45,2.44-5.45,5.46,2.44,5.45,5.45,5.45Z"/><path class="cls-31" d="M312.14,208.95s29.28.06,40.58.23c7.82.12,8.53-11.03,5.45-12.71-9.36-5.1-38.58-7.72-38.58-7.72l-19.87,18.25s1.12-.03,12.42,1.94Z"/><path class="cls-156" d="M339.75,149.22s7.52-2.11,10.8,7.72c5.03,15.09,4.58,28.92,3.88,31.87-.32,1.36-1.29,6.04-9.7,6.23-3.41.07-2.04-7.24-2.04-7.24,0,0-2.19-6.21-4.52-16.71-2.33-10.5,1.58-21.87,1.58-21.87Z"/><path class="cls-10" d="M345.7,150.06l-19.31-6.24-14.61-.98-16.01,4.84s-5.24,3.61-.38,15.22c4.87,11.6,2.99,29.79,2.99,29.79l41.3,1.32s.78-16.81,3.52-33.62c.61-3.75.69-8.17,2.49-10.33Z"/><path class="cls-156" d="M317.37,193.2h2.1c2.2-16.23,2.1-32.98-.32-49.15-.64.38-1.27.76-1.91,1.13.53,16.54-.38,33.08.12,48.02Z"/><path class="cls-17" d="M325.57,148.37c-.28,2.23-2.11,4.17-4.02,4.26h-5.46c-1.92-.09-3.74-2.02-4.03-4.26-.44-3.68-.89-7.36-1.34-11.04-.3-2.21,1.01-6.64,3.92-7.95,2.66-1.17,5.7-1.17,8.35,0,2.9,1.31,4.22,5.74,3.92,7.95-.45,3.68-.89,7.36-1.34,11.04Z"/><polygon class="cls-156" points="318.61 152.9 315.14 158.59 308.79 150.64 309.79 146.47 311.85 144.78 311.88 147.92 318.61 152.9"/><polygon class="cls-156" points="319.03 152.9 322.49 158.59 328.4 151.19 327.43 146.66 325.95 144.75 325.35 148.46 319.03 152.9"/><path class="cls-158" d="M318,122.37c-1.53,0-2.87.78-3.65,1.97h-1.5c-1.87,0-3.38,1.51-3.38,3.38v8.36h2.38v-3.4c0-1.32,1.07-2.38,2.38-2.38h1.39-2.2,1.45c2.41,0,4.37-1.95,4.37-4.36v-3.57h-1.24Z"/><path class="cls-17" d="M313.78,139.2c0,1.15-.93,2.07-2.07,2.07h-.17c-1.14,0-2.07-.93-2.07-2.07v-2.52c0-1.14.93-2.07,2.07-2.07h.17c.85,0,1.57.51,1.9,1.24"/><path class="cls-158" d="M316.14,125.69v-3.32h7.17c2.41,0,4.37,1.96,4.37,4.37v3.32h-7.17c-2.41,0-4.36-1.96-4.36-4.36Z"/><path class="cls-41" d="M327.06,142.38c0,1.73-1.33,4.67-3.53,5.6-2.99,1.23-6.52,1.23-9.51,0-2.2-.93-3.52-3.86-3.53-5.6v-14.78c-.01-1.75,1.73-3.22,3.88-3.26h8.81c2.15.04,3.9,1.51,3.88,3.26v14.78Z"/><path class="cls-158" d="M320.47,122.37c1.53,0,2.87.78,3.65,1.97h1.5c1.87,0,3.38,1.51,3.38,3.38v8.36h-2.38v-3.4c0-1.32-1.07-2.38-2.38-2.38h-.03.84-3.86c-2.41,0-4.36-1.95-4.36-4.36v-3.57h3.63Z"/><path class="cls-41" d="M324.72,136.68c0-1.14.93-2.07,2.07-2.07h.17c1.15,0,2.07.93,2.07,2.07v2.52c0,1.14-.93,2.07-2.07,2.07h-.17c-.85,0-1.58-.51-1.9-1.23"/><path class="cls-158" d="M316.84,126.55c.06-.28.09-.57.09-.86v-3.32h-3.09c-2.42,0-4.37,1.96-4.37,4.37v3.32h3.09c.31,0,.6-.03.9-.09.34-1.71,1.67-3.06,3.38-3.41Z"/><path class="cls-53" d="M278.51,264.93c-.45.54-.12,1.98-.12,1.98,0,0,7.88.88,10.42.28.66-.15,1.77-.72,2.82-1.32.18-.1.49-.71.66-.81.32-.19.48.13.75-.04.7-.44,1.2-.79,1.21-.83.69-3.61-.23-5.07-.23-5.07,0,0-6.71-2.23-7.97-.68-2.96,3.66-6.55,5.29-7.53,6.49Z"/><path class="cls-53" d="M352.16,261l.55,5.95,5.96.58s.41-.79.91-.75c.43.04.89.93,1.47.98,1.25.12,2.64.26,3.2.31,1.12.11,11.96,1.17,11.96,1.17,0,0,.39-1.2.1-1.66-.15-.23-1.11-.71-1.75-.96-3-1.17-11.54-4.73-12.79-7.82-1.51-3.76-9.62,2.19-9.62,2.19Z"/><path class="cls-41" d="M343.14,185.63l-20.15,8.23s14.3,2.04,23.23.22c6.05-1.23-2.8-8.71-3.08-8.45Z"/><path class="cls-31" d="M297.41,198.17s-1.94,18.4-1.66,28.13c.21,7.34.23,21.4-1.52,33.39-.11.73-9.48.18-9.48.18,0,0-3.36-45.62-4.36-53.13-1-7.51,1.91-12.94,17.02-8.57Z"/><path class="cls-29" d="M356.36,202.61s-3.02,4.77-11.31,5.9c-3,.41,4.83,53.4,4.83,53.4l12.24-3.92-2.37-58.6-3.4,3.22Z"/><path class="cls-29" d="M322.59,208.5s-16,2.29-26.68,3.4c-3.91.41-7.31-10.55-7.76-11.03-2.86-3-5.68-2.62-5.58-2.72,2.31-2.5,14.3-4.83,26.82-7.76,12.52-2.94,14.43-1.09,14.43-1.09l-1.23,19.2Z"/><path class="cls-31" d="M309.38,190.4c-12.52,2.94-24.51,5.26-26.82,7.76-.1.11,2.72-.27,5.58,2.72.12.13.85,3.64,1.36,4.9-2.04-3.67,27.39-14.05,33.75-16.74-1.19-.38-4.65-.81-13.87,1.35Z"/><polygon class="cls-29" points="295.63 208.37 294.41 244.18 293.18 252.48 293.04 244.18 293.32 239 290.46 230.97 288.96 212.32 291.14 213.13 290.87 204.97 295.63 208.37"/><path class="cls-31" d="M355.94,198.16l3,.82,1.09,43.02-6.26,15.38,3-10.48-1.23-21.64s-4.36,10.48-4.36,9.94,3.68-22.74,3.68-22.74c0,0-4.08,3.4-3.68,3.27.41-.14,2.45-15.52,4.76-17.56Z"/><path class="cls-10" d="M304.62,147.86s-6.43-5.04-12.73,4.31c-9.22,13.71-13.22,28.29-14.69,32.51-1.12,3.24-.5,12.38,3.27,16.15.91.91,6.35.18,6.35.18l3.57-2.47-1.5-2.88-.08-2.27s4.57-11.03,10.18-21.45c5.62-10.42,5.62-24.08,5.62-24.08Z"/><path class="cls-41" d="M288.9,189.77l20.88,1.09s-20.12,9.23-20.78,7.64c-3.77-9.01-.1-8.73-.1-8.73Z"/><path class="cls-41" d="M300.39,189.13c1.22-.59,1.11-.6,1.11-.6,0,0,1.12,1.33,2.73,1.57.8.12,3.39.16,3.39.16l3.85.09,1.78-.1s1.01-.13,1.28.04c.78.5.11.9.11.9l-6.89.98,6.63.82s.83.25.87.7c.04.42-.24.41-.24.41l-7.7.82,3.38.81s.81.26.87.7c.07.48.1.61.1.61l-7.07-.69s-5.4-6.62-4.18-7.2Z"/><path class="cls-41" d="M308.03,193.39l4.63.85s1.06.07,1.53.41c.54.39.22.87.22.87l-7.1-.6.72-1.53Z"/><path class="cls-157" d="M337.06,197.03s.02-.03.02-.04l-.02-1.32h-41.14v1.32s0,.03,0,.04l.14.25c.7,1.14,1.96,1.35,3.4,1.35h34.07c1.44,0,2.7-.2,3.4-1.35l.14-.25Z"/><rect class="cls-16" x="302.88" y="195.97" width="27.24" height=".93"/><path class="cls-152" d="M337.04,195.81l.11-26.97c0-.71-.57-1.29-1.28-1.29h-38.51c-.71,0-1.29.57-1.29,1.29l-.11,26.97h41.09Z"/><path class="cls-157" d="M319.04,181.68c0,1.38-1.13,2.5-2.5,2.5s-2.49-1.12-2.48-2.5c0-1.38,1.12-2.49,2.5-2.49s2.49,1.12,2.48,2.49Z"/><polygon class="cls-156" points="286.19 200.2 284.76 191.04 287.13 188.6 292.41 189.44 291.33 199.58 286.19 200.2"/><polygon class="cls-10" points="350.22 193.63 350.77 190.26 344.1 184.27 340.49 185.9 345.21 194.93 350.22 193.63"/><path class="cls-55" d="M588.96,124.2l-.11-5-4.45-.28c-.35-1.63-.98-3.15-1.85-4.5l2.89-3.57-3.61-3.46-3.34,2.95c-1.35-.88-2.87-1.52-4.49-1.88l-.48-4.57-5,.11-.27,4.45c-1.63.34-3.15.98-4.5,1.85l-3.57-2.89-3.46,3.61,2.95,3.34c-.88,1.35-1.52,2.87-1.88,4.49l-4.57.48.11,5,4.45.28c.35,1.63.98,3.15,1.85,4.5l-2.89,3.57,3.61,3.46,3.34-2.95c1.35.88,2.87,1.52,4.49,1.87l.48,4.57,5-.11.28-4.45c1.63-.35,3.15-.98,4.5-1.85l3.57,2.89,3.46-3.61-2.95-3.34c.88-1.35,1.52-2.87,1.88-4.49l4.57-.48ZM571.24,128.36c-3.65.08-6.67-2.81-6.74-6.46-.08-3.65,2.82-6.66,6.46-6.74,3.64-.08,6.66,2.81,6.74,6.46.08,3.65-2.82,6.67-6.46,6.74Z"/><path class="cls-31" d="M214.68,125.14v40.26c0,2.98,2.42,5.4,5.4,5.4h50.94c2.98,0,5.4-2.42,5.4-5.4v-12.05l2.7-2.7,5.4-5.39-5.4-5.39-2.7-2.7v-12.03c0-2.98-2.42-5.4-5.4-5.4h-50.94c-2.98,0-5.4,2.42-5.4,5.4Z"/><path class="cls-35" d="M231.4,144.44v.1l7.85,3.31v4.41l-12.04-5.94v-3.75l12.04-5.93v4.4l-7.85,3.4Z"/><path class="cls-35" d="M244.18,155.35h-3.32l7.04-25.75h3.36l-7.07,25.75Z"/><path class="cls-35" d="M261.24,144.47v-.1l-7.93-3.35v-4.38l12.13,5.93v3.75l-12.13,5.94v-4.38l7.93-3.4Z"/><path class="cls-145" d="M436.08,152.45h-42.71c-2.62,0-4.75,2.13-4.75,4.75v33.22c0,2.62,2.13,4.75,4.75,4.75h14.25l2.37,2.37,4.74,4.75,4.74-4.75,2.37-2.37h14.23c2.62,0,4.75-2.12,4.75-4.75v-33.22c0-2.62-2.12-4.75-4.75-4.75Z"/><path class="cls-35" d="M406.54,186.64c-1.59-.52-2.73-1.36-3.41-2.51-.68-1.15-1.02-2.53-1.02-4.15v-2.95c0-.94-.16-1.67-.49-2.2-.33-.53-.82-.79-1.48-.79v-2.89c.66,0,1.15-.26,1.48-.79.32-.52.49-1.26.49-2.21v-2.96c0-1.63.34-3.02,1.02-4.16.68-1.14,1.81-1.97,3.41-2.5l.76,2.25c-.59.3-1,.82-1.23,1.57-.23.75-.34,1.7-.34,2.84v2.96c0,.99-.2,1.87-.59,2.64-.39.77-.98,1.37-1.78,1.8.78.44,1.37,1.04,1.77,1.81.4.77.59,1.64.59,2.63v2.95c0,1.15.11,2.09.34,2.83.22.75.64,1.27,1.24,1.56l-.76,2.26Z"/><path class="cls-35" d="M421.38,184.38c.59-.3,1.01-.82,1.25-1.56.24-.74.36-1.69.36-2.83v-2.95c0-.99.2-1.87.59-2.64.39-.77.99-1.37,1.8-1.8-.81-.42-1.41-1.01-1.8-1.78-.39-.77-.59-1.65-.59-2.66v-2.96c0-1.15-.12-2.09-.36-2.84-.24-.75-.65-1.27-1.25-1.57l.76-2.25c1.59.53,2.72,1.36,3.4,2.5.68,1.14,1.02,2.53,1.02,4.16v2.96c0,.95.16,1.69.48,2.21.32.52.82.78,1.51.78v2.89c-.69,0-1.19.26-1.51.79-.32.53-.48,1.26-.48,2.21v2.95c0,1.62-.34,3.01-1.02,4.15-.68,1.15-1.82,1.98-3.4,2.51l-.76-2.26Z"/><g class="cls-38"><g class="cls-38"><path class="cls-32" d="M810.69,66c4.93-.35,9.86-.71,14.78-1.07.83-.06,1.67-.09,2.52-.08l-14.78,1.07c-.85,0-1.69.02-2.52.09Z"/><g class="cls-160"><g class="cls-38"><path class="cls-26" d="M810.69,66l14.78-1.07c.62-.05,1.24-.07,1.88-.08l-14.78,1.07c-.63.01-1.25.04-1.87.08"/><path class="cls-25" d="M812.56,65.92l14.78-1.07c.22,0,.43,0,.65,0l-14.78,1.07c-.22,0-.43,0-.65,0"/></g></g></g><g class="cls-38"><path class="cls-24" d="M813.21,65.92l14.78-1.07c20.26.09,37.4,18.66,40.59,42.66l-14.78,1.07c-3.2-24-20.33-42.57-40.59-42.66Z"/><g class="cls-45"><g class="cls-38"><path class="cls-22" d="M813.21,65.92l14.78-1.07c.69,0,1.38.03,2.06.07l-14.78,1.07c-.68-.05-1.37-.07-2.06-.07"/><path class="cls-20" d="M815.27,65.99l14.78-1.07c.82.05,1.63.14,2.43.25l-14.78,1.07c-.8-.11-1.62-.2-2.43-.25"/><path class="cls-19" d="M817.7,66.24l14.78-1.07c.76.11,1.51.24,2.26.4l-14.78,1.07c-.75-.16-1.5-.29-2.26-.4"/><path class="cls-23" d="M819.96,66.64l14.78-1.07c.71.15,1.42.33,2.13.52l-14.78,1.07c-.7-.2-1.41-.37-2.13-.52"/><path class="cls-73" d="M822.08,67.16l14.78-1.07c.67.19,1.35.4,2.01.63l-14.78,1.07c-.66-.23-1.33-.44-2.01-.63"/><path class="cls-74" d="M824.09,67.79l14.78-1.07c.66.23,1.31.48,1.95.74l-14.78,1.07c-.65-.27-1.3-.52-1.96-.74"/><path class="cls-75" d="M826.05,68.54l14.78-1.07c.64.27,1.28.55,1.91.85l-14.78,1.07c-.63-.3-1.26-.59-1.91-.85"/><path class="cls-76" d="M827.96,69.39l14.78-1.07c.63.31,1.26.63,1.87.97l-14.78,1.07c-.62-.34-1.24-.67-1.87-.97"/><path class="cls-78" d="M829.83,70.37l14.78-1.07c.63.35,1.25.72,1.87,1.11l-14.78,1.07c-.61-.39-1.23-.76-1.87-1.11"/><path class="cls-89" d="M831.69,71.47l14.78-1.07c.63.4,1.25.81,1.86,1.25l-14.78,1.07c-.61-.43-1.23-.85-1.86-1.25"/><path class="cls-90" d="M833.55,72.72l14.78-1.07c.63.45,1.25.92,1.86,1.41l-14.78,1.07c-.61-.49-1.23-.96-1.86-1.41"/><path class="cls-91" d="M835.41,74.13l14.78-1.07c.65.52,1.29,1.07,1.91,1.63l-14.78,1.07c-.63-.56-1.26-1.11-1.92-1.63"/><path class="cls-92" d="M837.33,75.76l14.78-1.07c.68.61,1.34,1.24,1.98,1.9l-14.78,1.07c-.65-.66-1.3-1.29-1.98-1.9"/><path class="cls-77" d="M839.31,77.66l14.78-1.07c.71.73,1.4,1.48,2.08,2.27l-14.78,1.07c-.67-.78-1.36-1.54-2.08-2.27"/><path class="cls-80" d="M841.38,79.93l14.78-1.07c.78.91,1.53,1.85,2.25,2.83l-14.78,1.07c-.72-.98-1.47-1.92-2.25-2.83"/><path class="cls-79" d="M843.63,82.76l14.78-1.07c.95,1.29,1.85,2.64,2.69,4.05l-14.78,1.07c-.84-1.41-1.74-2.76-2.69-4.05"/><path class="cls-81" d="M846.32,86.81l14.78-1.07c3.22,5.39,5.61,11.58,6.9,18.26l-14.78,1.07c-1.3-6.68-3.68-12.87-6.9-18.26"/><path class="cls-82" d="M853.23,105.07l14.78-1.07c.22,1.16.42,2.33.57,3.51l-14.78,1.07c-.16-1.18-.35-2.35-.57-3.51"/></g></g></g><g class="cls-38"><path class="cls-98" d="M859.52,107.39c4.93-.36,9.85-.71,14.78-1.07.54-.04,1.08-.06,1.63-.05,15.08.06,27.62,15.14,28.02,33.66.03,1.35-.02,2.67-.12,3.97l-14.78,1.07c.1-1.31.15-2.63.12-3.97-.4-18.52-12.94-33.6-28.02-33.66-.55,0-1.09.02-1.63.06Z"/><g class="cls-47"><g class="cls-38"><path class="cls-99" d="M859.52,107.39l14.78-1.07c.41-.03.83-.05,1.24-.05l-14.78,1.07c-.42,0-.83.02-1.24.05"/><path class="cls-97" d="M860.76,107.34l14.78-1.07c.13,0,.26,0,.39,0,.47,0,.93.02,1.4.05l-14.78,1.07c-.46-.03-.93-.05-1.4-.05-.13,0-.26,0-.39,0"/><path class="cls-83" d="M862.55,107.39l14.78-1.07c.56.04,1.12.09,1.67.17l-14.78,1.07c-.55-.08-1.11-.13-1.66-.17"/><path class="cls-100" d="M864.21,107.56l14.78-1.07c.52.07,1.04.16,1.55.27l-14.78,1.07c-.51-.11-1.03-.2-1.55-.27"/><path class="cls-88" d="M865.76,107.83l14.78-1.07c.48.1.96.22,1.44.35l-14.78,1.07c-.47-.13-.95-.25-1.44-.35"/><path class="cls-86" d="M867.19,108.18l14.78-1.07c.46.13.92.27,1.38.43l-14.78,1.07c-.45-.16-.92-.3-1.38-.43"/><path class="cls-85" d="M868.57,108.62l14.78-1.07c.45.16.89.32,1.33.51l-14.78,1.07c-.44-.18-.88-.35-1.34-.51"/><path class="cls-87" d="M869.91,109.12l14.78-1.07c.44.18.87.38,1.3.58l-14.78,1.07c-.43-.21-.86-.4-1.3-.58"/><path class="cls-94" d="M871.21,109.71l14.78-1.07c.43.21.86.43,1.28.66l-14.78,1.07c-.42-.23-.85-.46-1.28-.67"/><path class="cls-93" d="M872.49,110.37l14.78-1.07c.42.24.85.49,1.26.75l-14.78,1.07c-.42-.26-.83-.51-1.26-.75"/><path class="cls-95" d="M873.75,111.12l14.78-1.07c.43.27.86.56,1.28.86l-14.78,1.07c-.42-.3-.84-.58-1.28-.86"/><path class="cls-101" d="M875.03,111.98l14.78-1.07c.43.31.86.63,1.28.97l-14.78,1.07c-.42-.34-.84-.66-1.28-.97"/><path class="cls-96" d="M876.3,112.95l14.78-1.07c.44.35.87.72,1.29,1.1l-14.78,1.07c-.42-.38-.85-.75-1.29-1.1"/><path class="cls-102" d="M877.6,114.05l14.78-1.07c.46.41.9.84,1.34,1.29l-14.78,1.07c-.44-.44-.88-.87-1.34-1.29"/><path class="cls-64" d="M878.94,115.33l14.78-1.07c.49.5.96,1.02,1.42,1.55l-14.78,1.07c-.46-.54-.93-1.05-1.42-1.55"/><path class="cls-65" d="M880.36,116.88l14.78-1.07c.53.62,1.04,1.27,1.54,1.94l-14.78,1.07c-.49-.67-1-1.32-1.54-1.94"/><path class="cls-66" d="M881.9,118.82l14.78-1.07c.64.88,1.25,1.79,1.82,2.75l-14.78,1.07c-.57-.95-1.18-1.87-1.82-2.75"/><path class="cls-63" d="M883.72,121.57l14.78-1.07c2.18,3.64,3.8,7.82,4.69,12.33l-14.78,1.07c-.89-4.51-2.5-8.69-4.69-12.33"/><path class="cls-71" d="M888.41,133.9l14.78-1.07c.22,1.13.4,2.27.53,3.44l-14.78,1.07c-.13-1.17-.3-2.31-.53-3.44"/><path class="cls-69" d="M888.93,137.34l14.78-1.07c.1.88.17,1.78.21,2.68l-14.78,1.07c-.04-.9-.11-1.8-.21-2.68"/><path class="cls-72" d="M889.14,140.02l14.78-1.07c.02.33.02.65.03.98,0,.4,0,.79,0,1.19l-14.78,1.07c0-.39,0-.79,0-1.19,0-.33-.02-.66-.03-.98"/><path class="cls-70" d="M889.18,142.19l14.78-1.07c0,.73-.04,1.46-.08,2.18l-14.78,1.07c.04-.72.07-1.45.08-2.18"/><path class="cls-68" d="M889.1,144.37l14.78-1.07c-.01.2-.03.41-.04.61l-14.78,1.07c.01-.2.03-.41.04-.61"/></g></g></g><g class="cls-38"><path class="cls-67" d="M904.91,174.58c-4.93.36-9.85.71-14.78,1.07,6.52-.47,11.55-7.12,11.38-15.28-.18-8.32-5.72-15.11-12.45-15.39l14.78-1.07c6.73.27,12.27,7.06,12.45,15.39.18,8.16-4.85,14.81-11.38,15.28Z"/><g class="cls-46"><g class="cls-38"><path class="cls-111" d="M889.05,144.98l14.78-1.07c.09,0,.18,0,.27.01l-14.78,1.07c-.09,0-.18-.01-.27-.02"/><path class="cls-112" d="M889.33,144.99l14.78-1.07c.26.02.51.04.77.08l-14.78,1.07c-.25-.04-.51-.06-.77-.08"/><path class="cls-106" d="M890.09,145.07l14.78-1.07c.24.03.47.07.7.12l-14.78,1.07c-.23-.05-.46-.09-.7-.12"/><path class="cls-107" d="M890.79,145.19l14.78-1.07c.22.05.44.1.66.16l-14.78,1.07c-.22-.06-.44-.12-.66-.16"/><path class="cls-108" d="M891.45,145.36l14.78-1.07c.21.06.43.13.64.2l-14.78,1.07c-.21-.07-.42-.14-.63-.2"/><path class="cls-109" d="M892.08,145.56l14.78-1.07c.2.07.41.15.61.23l-14.78,1.07c-.2-.08-.4-.16-.61-.23"/><path class="cls-103" d="M892.69,145.79l14.78-1.07c.2.08.4.17.6.27l-14.78,1.07c-.2-.09-.39-.18-.6-.27"/><path class="cls-104" d="M893.29,146.05l14.78-1.07c.2.1.39.2.58.3l-14.78,1.07c-.19-.11-.39-.21-.58-.3"/><path class="cls-105" d="M893.87,146.36l14.78-1.07c.19.11.39.23.58.35l-14.78,1.07c-.19-.12-.38-.24-.58-.35"/><path class="cls-120" d="M894.45,146.7l14.78-1.07c.2.12.39.25.58.39l-14.78,1.07c-.19-.14-.39-.27-.58-.39"/><path class="cls-121" d="M895.04,147.09l14.78-1.07c.2.14.39.29.58.44l-14.78,1.07c-.19-.15-.39-.3-.58-.44"/><path class="cls-122" d="M895.62,147.53l14.78-1.07c.2.16.4.33.59.51l-14.78,1.07c-.2-.18-.39-.34-.59-.51"/><path class="cls-116" d="M896.21,148.04l14.78-1.07c.21.19.42.39.62.6l-14.78,1.07c-.2-.21-.41-.4-.62-.59"/><path class="cls-117" d="M896.83,148.63l14.78-1.07c.22.23.44.46.65.71l-14.78,1.07c-.21-.24-.42-.48-.65-.71"/><path class="cls-118" d="M897.48,149.34l14.78-1.07c.24.28.48.58.7.89l-14.78,1.07c-.22-.31-.46-.6-.7-.89"/><path class="cls-119" d="M898.18,150.23l14.78-1.07c.29.39.56.8.82,1.23l-14.78,1.07c-.25-.42-.53-.83-.82-1.23"/><path class="cls-113" d="M899,151.46l14.78-1.07c1,1.67,1.75,3.59,2.16,5.66l-14.78,1.07c-.41-2.07-1.15-3.99-2.16-5.66"/><path class="cls-114" d="M901.15,157.12l14.78-1.07c.1.51.18,1.04.24,1.57l-14.78,1.07c-.06-.53-.14-1.05-.24-1.57"/><path class="cls-115" d="M901.39,158.69l14.78-1.07c.05.41.08.81.1,1.23l-14.78,1.07c-.02-.41-.05-.82-.09-1.23"/><path class="cls-132" d="M901.49,159.91l14.78-1.07c0,.15.01.3.02.45,0,.21,0,.41,0,.61l-14.78,1.07c0-.2,0-.41,0-.61,0-.15,0-.3-.02-.45"/><path class="cls-130" d="M901.5,160.98l14.78-1.07c0,.32-.01.64-.03.95l-14.78,1.07c.02-.31.03-.63.04-.95"/><path class="cls-126" d="M901.47,161.93l14.78-1.07c-.02.3-.04.59-.07.88l-14.78,1.07c.03-.29.06-.58.07-.88"/><path class="cls-131" d="M901.4,162.81l14.78-1.07c-.03.27-.07.54-.11.81l-14.78,1.07c.04-.27.08-.54.11-.81"/><path class="cls-128" d="M901.29,163.62l14.78-1.07c-.04.26-.09.52-.14.78l-14.78,1.07c.05-.26.1-.52.14-.78"/><path class="cls-125" d="M901.15,164.39l14.78-1.07c-.05.25-.11.5-.17.75l-14.78,1.07c.06-.25.12-.5.17-.75"/><path class="cls-129" d="M900.99,165.14l14.78-1.07c-.06.25-.12.49-.19.73l-14.78,1.07c.07-.24.13-.48.19-.73"/><path class="cls-127" d="M900.79,165.87l14.78-1.07c-.07.24-.14.48-.22.71l-14.78,1.07c.08-.24.16-.47.22-.71"/><path class="cls-124" d="M900.57,166.58l14.78-1.07c-.08.24-.17.47-.26.7l-14.78,1.07c.09-.23.18-.46.26-.7"/><path class="cls-123" d="M900.31,167.28l14.78-1.07c-.09.24-.19.47-.29.71l-14.78,1.07c.1-.23.2-.47.29-.71"/><path class="cls-139" d="M900.02,167.99l14.78-1.07c-.11.24-.22.47-.34.7l-14.78,1.07c.12-.23.23-.46.34-.7"/><path class="cls-138" d="M899.68,168.69l14.78-1.07c-.12.24-.25.48-.38.71l-14.78,1.07c.13-.23.26-.47.38-.71"/><path class="cls-135" d="M899.3,169.4l14.78-1.07c-.14.25-.3.5-.45.74l-14.79,1.07c.16-.24.31-.49.45-.74"/><path class="cls-134" d="M898.85,170.14l14.79-1.07c-.17.26-.35.52-.54.77l-14.78,1.07c.19-.25.37-.51.54-.77"/><path class="cls-136" d="M898.31,170.91l14.78-1.07c-.22.29-.44.56-.67.83l-14.78,1.07c.23-.26.46-.54.67-.83"/><path class="cls-133" d="M897.63,171.74l14.78-1.07c-.29.33-.59.64-.91.94l-14.78,1.07c.32-.29.62-.6.91-.93"/><path class="cls-137" d="M896.73,172.67l14.78-1.07c-1.85,1.72-4.12,2.79-6.6,2.97l-14.78,1.07c2.49-.18,4.75-1.25,6.6-2.97"/></g></g></g><path class="cls-154" d="M813.21,65.92c20.26.09,37.4,18.66,40.59,42.66,2.33-.8,4.79-1.25,7.35-1.24,15.08.06,27.62,15.14,28.02,33.66.03,1.35-.02,2.67-.12,3.97,6.73.27,12.27,7.06,12.45,15.39.18,8.49-5.27,15.34-12.17,15.31-.36,0-.71-.04-1.06-.07l-22.05-.03-23.97-.11-10.78-.05-12.03-.05-41.14-.18c-13.5-.06-24.73-13.56-25.09-30.15-.33-15.43,8.86-28.09,21-29.74-.6-27.5,16.86-49.47,38.99-49.37Z"/></g><path class="cls-161" d="M371.71,385.89c-4.65,1.17-13.23,5.34-15.03,12.48-2.7,10.71,2.7,26.44-5.84,41.82-2.72,4.91,47.18,11.5,47.18,11.5l9.63-54.13s-12.03-11.75-14.49-12.54c-5.1-1.64-12.15-1.46-21.45.88Z"/><path class="cls-55" d="M407.72,397.59c1.73,4.33,6.11,30.06,1.23,36.13-.56.7,2.53,1.79,1.97,4.99-.09.54-1.03,3.09-1.03,3.09l-3.99,1.04-12.05-6.86,2.31-2.81,1.09.02s1.03-.96.75-2.14c-.28-1.18,2.76-3.1,7.37-23.07,1.36-5.88,1.96-11.34,2.34-10.39Z"/><path class="cls-11" d="M403.06,432.49l-3.56-.79-1.44-.23c0,.98-.79,1.71-.79,1.71l2.76.09,3.24.69,3.91,2.23-4.11-3.71Z"/><path class="cls-44" d="M397.96,435.82s2.76-.03,5.1,1.41c1.79,1.1,3.43,3.49,1.79,4.79-1.64,1.3-4.17,2.51-4.17,2.51,0,0-6.28.17-2.72-8.7Z"/><path class="cls-152" d="M404.85,442.11l-1.68-.36s-5.78-.53-6.6-.08c-.82.46-3.47,2.25-3.47,2.25l-.55.5s1.29.8,3.03-.41c1.74-1.22,1.89-.28,1.89-.28l-.29,1.54.02,1.97-.27.83s-.25.45-.05.62c.55.48,1.1.25,1.1.25l1.76-3.07.48,3.34s.24.46.79.57c.52.11.52-.03.52-.03l.4-.85c.04.18.14.41.35.58.44.34,1.05.3,1.05.3l-.16-3.52.72,1.79s.25.44.79.57c.58.14.74.18.74.18l-.55-6.69Z"/><path class="cls-41" d="M374.91,428.35s4.19,10.63,14.28,13.47c1.75.49,2.82,2.38,1.98,2.99-1.08.77-2.56.94-5.09.94-5.27-.01-12.45-1.65-17.41-6.46-7.35-7.11-9.66-10.34-8.92-13.92.74-3.58,15.16,2.98,15.16,2.98Z"/><path class="cls-55" d="M358.11,394.79c-2.13,3.51-3.37,9.14-3.35,17.21.02,6.24,5.4,16.46,6.23,19.6.14.53.47,2.77.47,2.77l5.97,5.86,11.97-8.11-3.64-5.59-1.09.11s-.68-3.08-.5-4.28c.19-1.2-3.31-17.3-5.05-27.62-1-5.95-8.89-3.43-11,.04Z"/><path class="cls-161" d="M368.82,426.44l3.49-1.08,1.42-.35c.09.97.93,1.63.93,1.63l-2.75.32-3.17.97-3.71,2.55,3.79-4.04Z"/><path class="cls-41" d="M388.42,441.79l6.1-1.67s1.73,2.32,1.4,2.89c-.33.58,0,4.01,0,4.01l-2.96,2.51-2.4-.8s-.17-1.04.66-1.15c.82-.11-.56-.7-.99-.95-.43-.25-3.96-2.07-1.81-4.85Z"/><path class="cls-17" d="M379.34,377.26h13.06c1.02,0,1.85.83,1.85,1.85v7.41c0,1.02-.83,1.86-1.86,1.86h-13.06c-1.02,0-1.85-.83-1.85-1.85v-7.41c0-1.02.83-1.86,1.86-1.86Z" transform="translate(-103.07 620.28) rotate(-70.68)"/><path class="cls-41" d="M394.17,393.1c-.35,1.28-1.68,2.03-2.96,1.68l-10.44-2.88c-1.28-.35-2.03-1.68-1.68-2.96l4.26-15.46c.36-1.28,1.67-2.03,2.96-1.68l10.44,2.87c1.28.36,2.03,1.68,1.68,2.96l-4.26,15.46Z"/><path class="cls-158" d="M397.57,380.83s1.82-1.11,2.33-1.96c.26-.43.29-2.31-.68-3.31-.97-1-2.29,0-2.29,0,0,0,1.57,1.54,1.56,1.96,0,.41-.91,3.32-.91,3.32Z"/><path class="cls-15" d="M380.37,380.14s.06-6.38.83-8.04c.77-1.66,1.3-2.82,3.48-2.42,3.26.59,3.11,1.27,4.93.73,1.81-.54,5.23-2.1,6.25-2.07,1.7.05,4.05,1.27,3.32,4.3-.54,2.23.71,3.16.65,3.23-.2.24-.85.33-2,.56-3.3.65-5.12.46-7.18-.73-2.07-1.19-5.86-3.59-6.79-2.08-.94,1.51-2.13,6.59-2.43,6.92-.3.33-.75,0-1.06-.4Z"/><path class="cls-41" d="M378.91,381.13h4.28c.44,0,.8.36.8.8v2.34c0,.44-.36.8-.8.8h-4.27c-.44,0-.8-.36-.8-.8v-2.34c0-.44.36-.8.8-.8Z" transform="translate(-89.46 648.79) rotate(-74.61)"/><path class="cls-41" d="M395.83,389.4c-.12.43-.56.68-.99.56l-2.25-.62c-.43-.12-.68-.56-.56-.99l1.14-4.13c.11-.43.56-.67.98-.56l2.25.62c.43.12.68.56.56.99l-1.14,4.12Z"/><path class="cls-15" d="M381,381.78s-1.68,6.09-2.24,8.12c-.5,1.83-.88,6.06,9.48,8.92,6.14,1.69,7.15-2.88,7.56-4.36.31-1.13-.04-4.86-.5-5.69-.02-.03-.69,2.51-.69,2.51,0,0-.6-2.8-3.52-3.61-4.71-1.29-6.53,1.16-8.6.55-1.58-.48-2.07-3.41-1.49-6.44Z"/><path class="cls-41" d="M388.06,391.14l3.22.89c.43.12.87-.13.98-.56l.12-.45-4.77-1.32-.12.45c-.12.43.13.87.56.99Z"/><path class="cls-144" d="M438.98,452.89c-1.49,4.11-27.53,19.23-36.25,18.33l-26.3,1.25c-22.37-2.73-32.95-37.48-32.95-37.48.89-8.73,22.93,3.93,30.78,7.84,12.44,6.21,20.3,6.52,20.3,6.52,8.32.85,17.96-5.57,28.47-5.79,11.54-.25,18.3,2.85,15.95,9.33Z"/><path class="cls-157" d="M381.76,448.72s-.01-.02-.02-.04v-1.09s45.27-.83,45.27-.83l.02,1.09s0,.02,0,.03l-.11.21c-.56.96-1.61,1.15-2.8,1.17l-39.4.72c-1.2.02-2.24-.13-2.84-1.07l-.12-.2Z"/><path class="cls-9" d="M392.67,448.7s0,.02,0,.03l-.11.17c-.18.25-.4.43-.65.57l-6.88.12c-1.15.02-2.15-.1-2.73-.85l-.11-.16s-.01-.02-.02-.03v-.53s10.49-.19,10.49-.19l.02.88Z"/><rect class="cls-16" x="398.77" y="447.33" width="22.63" height=".77" transform="translate(-8.07 7.53) rotate(-1.04)"/><path class="cls-59" d="M392.9,447.35l5.46-22.36c.15-.59.74-1.07,1.33-1.08l31.76-.58c.59-.01.95.46.8,1.05l-5.46,22.35-33.89.62Z"/><path class="cls-157" d="M410.65,435.36c-.28,1.14.42,2.05,1.55,2.03,1.13-.02,2.28-.96,2.56-2.1.28-1.14-.41-2.05-1.55-2.03-1.13.02-2.28.96-2.56,2.1Z"/><path class="cls-41" d="M372.4,478.27c3.13.54,5.52-3.1,5.52-3.1l8.09-6.37-1.71-4.31-15.76,7.09s.72,6.16,3.86,6.7Z"/><path class="cls-15" d="M377.94,474.92s0,.38-.6,2.04c-.61,1.66-1.34,2.24-2.13,2.47-3.02.89-5.2.44-12.47,1.84-7.27,1.4-9.45.35-11.58-3-2.13-3.35.08-5.98,3.63-6.25,5.13-.39,7.98.2,10.66-.21,2.8-.43,2.98-1.05,4.61-2.06,1.54-.95,2.95,4.68,1.5,5.98-1.28,1.14,5.28,1.32,6.37-.81Z"/><path class="cls-35" d="M376.38,478.16c-3.02.89-5.2.44-12.47,1.84-7.27,1.4-9.45.34-11.58-3-.98-1.55-1.03-2.93-.46-4.01-1.6,1.1-2.14,3.02-.71,5.29,2.13,3.35,4.31,4.4,11.58,3,7.27-1.4,9.45-.95,12.47-1.84.6-.18,1.18-.57,1.69-1.5-.17.1-.35.17-.52.22Z"/><path class="cls-41" d="M377.93,475.02c0-.07,0-.1,0-.1-.02.04-.05.07-.07.11.02,0,.04,0,.06,0Z"/><path class="cls-35" d="M362.22,477.54c-.24.08-.44-.35-.51-.97-.14-1.25-.42-2.51-.84-3.75-.21-.61-.2-1.15.05-1.22.26-.07.66.37.87.97.4,1.22.67,2.47.8,3.7.06.61-.12,1.18-.36,1.27Z"/><path class="cls-35" d="M364.48,477.13c-.25.05-.47-.38-.54-.96-.14-1.17-.41-2.35-.83-3.52-.21-.58-.19-1.08.08-1.11.27-.03.69.4.89.98.4,1.16.66,2.33.78,3.48.06.57-.14,1.08-.38,1.13Z"/><path class="cls-35" d="M366.84,477.03c-.25.03-.5-.42-.6-1.02-.19-1.21-.52-2.42-.98-3.63-.23-.6-.23-1.1.05-1.11.28-.01.72.46.95,1.04.45,1.2.76,2.4.93,3.6.09.59-.09,1.09-.35,1.13Z"/><path class="cls-158" d="M372.95,467.87s55.63-22.87,58.81-22.9c10.75-.1,8.28,10.77,2.84,15.89-6.42,6.04-55.26,17.08-55.26,17.08l-6.38-10.06Z"/><polygon class="cls-41" points="395.02 471.84 379.84 457.44 386.31 451.03 402.89 468.46 395.02 471.84"/><path class="cls-15" d="M398.17,460.52s-38.65-35.43-41.25-36.49c-8.82-3.58-14.29,6.16-13.98,9.53.4,4.36,39.67,39.85,39.67,39.85l15.57-12.89Z"/><path class="cls-15" d="M421.07,472.97c.9.83,1.06,3.29,1.06,3.29,0,0-12.9,4.88-17.43,4.97-1.18.02-3.3-.45-5.32-1.01-.35-.1-1.13-.98-1.46-1.08-.62-.18-.76.42-1.29.25-1.37-.44-2.35-.81-2.39-.88-2.72-5.79-1.8-8.64-1.8-8.64,0,0,5.93,1.7,4.91.37-2.17-2.84,4.04-5.74,5.42-4.23,5.52,6.04,15.68,4.55,18.3,6.96Z"/><path class="cls-35" d="M421.79,474.17c-3.96,1.58-12.3,4.83-13.95,4.94-6.79.48-11.53-1.93-14.7-3.35.28.82.63,1.73,1.11,2.74.04.07,1.02.44,2.39.88.53.17.67-.43,1.29-.25.33.1,1.12.98,1.46,1.08,2.03.56,4.15,1.03,5.32,1.01,4.53-.09,17.43-4.97,17.43-4.97,0,0-.03-1.12-.34-2.09Z"/><path class="cls-35" d="M412.67,470.41c.12.22-.38.49-1.11.64-1.47.3-2.93.74-4.36,1.32-.71.29-1.35.35-1.45.11-.09-.25.39-.72,1.09-.99,1.41-.56,2.86-.99,4.31-1.27.71-.14,1.39-.03,1.51.2Z"/><path class="cls-35" d="M409.78,469.39c.11.23-.39.55-1.09.76-1.43.42-2.84.97-4.21,1.66-.68.34-1.3.45-1.39.19-.09-.26.38-.77,1.05-1.1,1.37-.67,2.76-1.2,4.17-1.6.7-.19,1.35-.12,1.47.1Z"/><path class="cls-35" d="M406.99,468.49c.1.24-.38.61-1.06.87-1.38.52-2.74,1.18-4.05,1.98-.66.39-1.25.53-1.33.26-.08-.26.36-.83,1.01-1.21,1.31-.77,2.66-1.41,4.03-1.92.68-.25,1.32-.22,1.42.02Z"/><path class="cls-156" d="M743.44,141.8c0,5.16,4.18,9.34,9.34,9.34l2.33-4.43c5.16,0,9.33-7.77,9.33-12.92v-3.5c0-5.16-4.18-9.34-9.33-9.34h-2.33c-5.16,0-9.34,4.18-9.34,9.34v11.52Z"/><path class="cls-156" d="M762.58,130c.65-.09,1.29-.13,1.93-.15-.02.8.02,1.61.13,2.43,1.13,7.88,8.11,13.51,16.04,13.32-.12,7.55-5.81,14.13-13.68,15.26-8.7,1.25-16.75-4.65-17.97-13.17-1.22-8.52,4.84-16.44,13.54-17.69Z"/><path class="cls-41" d="M747.17,124.49c0,.86.08,1.74.22,2.63.94,6,4.59,10.55,8.57,11.11.12,2.72,1.08,5.07,1.32,7.23.52,4.71,5.73,5.21,5.73,5.21.68,4.19-15.79,9.99-15.46,9.31.34-.68,3.85-5.6,5-10.13.8-3.15-.23-5.75-1.43-7.55-2.23-2.62-5.46-2.58-5.46-2.58-.31,0-.59-.13-.79-.34-.19-.62-.29-1.27-.29-1.95v-7.7c0-2.13,1.01-4.03,2.58-5.24Z"/><path class="cls-15" d="M737.03,210.34s-.02-.09-.03-.13c.03-.03.05-.07.08-.1,1.28-6.6,3.24-13.03,6.25-18.85,2.12-4.1,6.41-7.99,8.3-9.95,4.87,2.66,9.68,1.42,14.23,4.87.59,1.87,1.07,3.91,1.42,6.13.69,3.97,1.29,7.67,1.8,11.12,7.06.67,24.48,2,31.03,3.29,3.88.9,4.11,2.41,4.72,2.9-.35,6.34-5.49,9.92-8.6,14.99-.55.9-42.47.49-49.4.49-3.72-.03-13.12-2.16-9.78-14.75Z"/><path class="cls-17" d="M802.14,218.6c1.14-1.33,1.78-2.98,2.63-4.45.66-2.83.65-4.74-.16-5.41-3.08-2.54-13.59,2.76-40.03,42.4-5.76,8.63-18.51,26.86-15.57,23.82,43.79-45.3,47.37-49.68,53.13-56.36Z"/><path class="cls-158" d="M748.99,272.96l4.69-7.5c.46-.74,1.19-1.12,1.89-1.08l-3.61,5.78c-.7,1.12-.53,2.62.38,3.36.31.25.66.37,1.02.39l-1.08,1.72c-.7,1.12-2,1.43-2.91.69-.91-.74-1.08-2.24-.38-3.36Z"/><path class="cls-41" d="M765.64,174.6l8.56-13.25c2.54-3.94,1.04-7.92-3.34-8.84l-24.78-5.23c-2.75-.34-7.16,3.6-6.18,8.28l5.25,15.3,20.48,3.73Z"/><path class="cls-158" d="M769.39,154.45c-.66,11.8,10.98,30.86,10.98,30.86,0,0,4.44.07,4.87-1.97.54-2.59-3.33-7.98-8.25-23.53-3.05-9.63-7.48-7.33-7.59-5.35Z"/><path class="cls-158" d="M740.05,147.71c-8.77,6.29-14.78,24.41-14.78,24.41,0,0,1.97,4.33,3.7,3.46,2.19-1.1,4.88-6.3,12.49-18.7,4.71-7.67.06-10.22-1.41-9.17Z"/><path class="cls-42" d="M747.28,180.27c.03,1.77,1.87,4.64,3.22,4.61l13.06.42c1.35-.02,4.58-2.21,4.55-3.98l-.12-5.96c-.03-1.77-1.15-3.19-2.5-3.16l-16.89-4.02c-1.35.03-2.41,1.48-2.38,3.26l1.06,8.84Z"/><path class="cls-61" d="M765.62,185.92c-.01.2-.95.3-2.09.23l-12.95-.81c-1.14-.07-2.06-.29-2.05-.48l.04-.74c0-.19.95-.29,2.09-.23l12.95.81c1.14.07,2.06.29,2.05.48l-.04.74Z"/><path class="cls-42" d="M742.71,154.01c.22-.86.54-1.66.92-2.34,12.03,8.53,20.54,4.91,26.68,3.46.06.36.1.74.13,1.13.23,4.24-.08,8.49.1,12.73.16,3.37-4.59,6.33-6.86,6.42-8.5.37-10.43-.14-18.61-2.35-2.19-.59-6.26-4.16-5.41-7.27,1.04-3.92,2.06-7.85,3.06-11.78Z"/><path class="cls-15" d="M763.92,150.72s8.89-.27,10.45,3.98c1.56,4.26-2.23,10.46-2.23,10.46,0,0-2.26,7.9-2.88,12.18-.62,4.28,2.1,8.35,1.26,7.51-.17-.17-2.18.02-5.39-1.48-3.2-1.5-1.43-7.34-1.11-9.22.32-1.88,1.88-11.14,1.53-12.67-.36-1.54-1.64-10.76-1.64-10.76Z"/><path class="cls-15" d="M738.11,153.42s-.68-3.56.78-4.97c2.16-2.08,7.36-1.8,9.05-1.3,1.68.49,2.83,1.04,2.83,1.04,0,0-5.89,2.38-5.66,14.56.04,2.08.58,6.32,1.29,9.57.71,3.24.95,9.57.95,9.57,0,0-3.52.72-3.68,1.24-.16.51-.38-3.76-2.78-7.84-2.39-4.08-2.77-21.86-2.77-21.86Z"/><path class="cls-158" d="M745.88,146.83c-3.28,2.73-5.26,5.06-4.76,19.22.08,2.3-.04,6.51.42,10.44-.2-.4-.41-.81-.65-1.22-2.39-4.08-2.77-21.86-2.77-21.86,0,0-.42-3.2,1.05-4.62,1.56-1.51,4.44-2.12,6.71-1.97Z"/><path class="cls-41" d="M794.79,221.53c.91-1.44,1.19-3.17,1.75-4.74.13-2.85-.36-4.52-1.15-5.23-3.55-3.22-11.36,2.75-24,28.76-6.37,13.11-11.17,24.45-19.78,31.47-1.25,1.02-1.89,2.03-2.3,3.21-1.25,3.69-.7,8.29-.54,8.15,6.03-5.52,29.17-35,46.02-61.62Z"/><path class="cls-15" d="M746.3,280.44l4.06-7.86c.4-.77,1.1-1.21,1.8-1.23l-3.13,6.05c-.61,1.17-.31,2.65.65,3.32.33.22.69.31,1.05.3l-.93,1.81c-.61,1.17-1.88,1.58-2.85.92-.97-.66-1.26-2.15-.66-3.32Z"/><path class="cls-158" d="M724.9,174.67c-3.16-6.14,3.12-13.79,3.12-13.79,0,0,2.12.19,2.96,1.32,1.05,1.43.76,4.44-.34,11.33-.68,4.27-5.2,2.17-5.73,1.14Z"/><path class="cls-41" d="M727.49,169.35s1.41.1,2.68-5.82c1.27-5.92.09-12.8.09-12.8l-3.04,11.54s-1.4,5.22.28,7.08Z"/><path class="cls-41" d="M730.25,150.73c-.04-.55-.52-1.24-.79-1.98-.47-1.27-1.48-3.1-2.14-4.22-.78-1.31-1.38-2.83-1.38-2.82-.29,1.59.58,2.37.74,3.1.15.72.18.45-.86-.31-.6-.43-.83-2.16-1.12-3.25-.25-.94-.61-1.3-.61-1.3,0,0-.05,1.51.26,3.01.37,1.81,1.11,3.69,1.34,4.08.42.7,1.4,2.03,2.42,3.26.31.38,1.44,2.26.96,4.56-.26,1.27,1.37-1.63,1.19-4.12Z"/><path class="cls-41" d="M725.87,147.1s-1.72-2.27-1.88-2.83c-.11-.4-.33-2.34-.33-2.34,0,0,.7.78.83,1.56.13.77,1.38,3.61,1.38,3.61Z"/><rect class="cls-155" x="766.86" y="206.41" width="36.61" height=".75"/><path class="cls-155" d="M783.02,206.37c0,.58.41,1.06.92,1.06h18.78c.51,0,1.2-.37,1.83-1.85l9.28-16.95c0-.74-.57-1.18-1.08-1.06l-19.26.58c-.51.12-.93.51-1.22,1.28l-9.25,16.94Z"/><path class="cls-60" d="M785.29,207.17h-18.52c.66.35,1.76.58,3,.58h30.85c1.24,0,2.34-.23,3-.58h-18.33Z"/><path class="cls-55" d="M785.81,151.28h-1.38v-.96h-9.15v8.1c0,1.1.78,2,1.74,2h5.67c.96,0,1.74-.9,1.74-2v-.62h1.38c.67,0,1.22-.63,1.22-1.41v-3.71c0-.78-.55-1.41-1.22-1.41ZM786,156.4c0,.12-.09.22-.19.22h-1.38v-4.15h1.38c.11,0,.19.1.19.22v3.71Z"/><path class="cls-41" d="M785.29,170.25c.82-3.1,2.2-6.3,1.94-8.14-.36-2.62-1.7-3.82-1.24-5.6.05-.2.06-.4.08-.6.07-.53.24-1.12.24-1.35,0-.26-.09-.97.06-.7,1.33,2.42,2.58,5.26,2.57,5.93-.02,1.37-.44,8.96-1.18,11.74-.83,3.14-3.57,2.89-2.47-1.28Z"/><path class="cls-41" d="M787.74,161.57s.6.26.84-.19c.38-.75.47-2.46.48-3.06,0-.68-.49-3.87-.49-3.87,0,0-.62,1.03-.42,2.31.29,1.87-.4,4.81-.4,4.81Z"/><path class="cls-41" d="M787.32,176.53c-1.04-.41-2.08-.89-3.1-1.45,2.21-8.1,4.44-14.87,4.44-14.87l-1.34,16.32Z"/><path class="cls-41" d="M788.33,157.62l-.79-4.51-1.76-.42-.61.3-.08.49s.23.3.18.3c-.25,0-.17.77.04.77.02,0-.21.91-.15,1.06.15.37.85.3,1.15,1.09.3.79-.12,1.7.3,1.76.43.06,1.7-.83,1.7-.83Z"/><path class="cls-158" d="M787.72,174.49c-.11-.67-3.9-.9-4.33.29l-.44.88s-3.47,7.69.66,9.1c0,0,4.46-.32,4.11-10.27Z"/><path class="cls-53" d="M469.31,525.37c.39-.52.02-1.83.02-1.83,0,0-7.3-.45-9.61.21-.6.17-1.6.74-2.54,1.35-.16.1-.42.67-.57.77-.28.19-.45-.1-.69.07-.63.44-1.07.78-1.07.82-.48,3.36.44,4.66.44,4.66,0,0,6.06,1.57,7.37.26,3.31-3.3,5.8-5.16,6.65-6.31Z"/><path class="cls-53" d="M492.41,527.01l1.3,5.36,5.52-.27s.27-.78.74-.8c.39-.02.94.72,1.47.7,1.16-.06,2.45-.12,2.96-.14,1.03-.05,11.07-.54,11.07-.54,0,0,.19-1.15-.13-1.53-.16-.19-1.1-.5-1.73-.64-2.89-.67-11.16-2.77-12.71-5.43-1.88-3.23-8.48,3.29-8.48,3.29Z"/><path class="cls-41" d="M491.54,344.87l1.32-6.56s4.66.36,5.57-2.15c1.83-5.03.3-13.08-.81-15.33-3.14-6.41-4.47-17.66-19.17-8.72-5.59,3.4,3.04,19.88,3.69,23.45.64,3.56-1.27,7.68-1.27,7.68l3.44,2.58,7.23-.94Z"/><path class="cls-41" d="M465.4,406.97l-.48,20.69s-7.79-8.6-8.55-18.38c-.75-9.78,8.55-3.08,9.04-2.31Z"/><path class="cls-158" d="M475.68,449.94s2.2.83-2.68,31.18c-3.51,21.86-6.64,37.87-8.12,45.13-.57,2.82-1.39,2.36-1.39,2.36l-6,.96-2.99-2.35,6.24-49.45,14.94-27.83Z"/><path class="cls-41" d="M513.69,393.5l-12.36,23.72s23.6-17.07,22.11-26.46c-1.48-9.39-9.75,2.74-9.75,2.74Z"/><path class="cls-58" d="M465.27,351.27s-5.01,3.07-8.62,27.96c-3.61,24.89-1.31,23.95-1.31,23.95l.65,5.67,9.38,1,5.06-21.49-5.16-37.1Z"/><path class="cls-158" d="M488.16,415.6s-11.04,57.88-20.65,84.05c-5.63,15.33-7.08-13.5-7.08-13.5l5.85-83.56,28.77-2.79s-3.22,1.17-6.89,15.8Z"/><path class="cls-158" d="M477.37,400.82s14.02,73.56,15.29,76.85c4.26,11.13,9.26-3.98,10.39-7.81,1.13-3.83,1.96-31.83.54-52.18l-1.42-20.33-24.8,3.47Z"/><path class="cls-158" d="M490.7,459.2s-1.15,8.91-1.91,20.26c-.56,8.33.55,32.01,2.88,48.37.14,1,10.45-2.56,10.45-2.56,0,0,1.59-46.2,1.97-56.55.37-10.35-7.18-17.19-13.38-9.51Z"/><path class="cls-42" d="M464.96,351.32l12.34-5.6,3.41-3.22,13.12-.32,2.3,3.79,10.17,4.41s2.51,3.95.32,18.59c-2.42,16.23-2.93,40.76-2.93,40.76l-38.46,1.85s3.34-52.38-.28-60.26Z"/><path class="cls-42" d="M503.03,350.41s2.29-2.56,7.87,4.38c9.5,11.81,14.11,26.47,15.09,29.3.98,2.84,2.24,6.85-1.64,11.57-2.98,3.6-3.94,4.82-3.94,4.82l-8.53-5.31,1.34-2.56.96-1.27s-4.59-10.08-9.51-19.22c-4.92-9.14-1.63-21.71-1.63-21.71Z"/><path class="cls-15" d="M493.48,322.71s-1.66-1.02-1.92.25c-.26,1.28.64,4.09,1.4,4.34.77.26,1.02,3.71,1.02,3.71l-2.04,3.84h-10.35s-3.2-1.41-3.45-3.7c-.26-2.3-2.81-18.53-2.81-18.53l7.28-3.84s3.83-1.92,6.51-2.68c4.12-1.18,4.99,1.02,4.86,2.17-.13,1.15,1.15,1.28,2.81,1.28s3.71,1.28,2.81,2.04c-.37.32,1.28,1.33.63,2.55-.94,1.74-4.08,2.31-4.33,5.12-.12,1.28-.64,5.5-2.43,3.45Z"/><path class="cls-41" d="M205,299.19l-1.62-4.18s-.68-2.03-2.27-4.07c-1.59-2.05-3.84-1.98-6.08-.83-2.24,1.15-2.88,2.38-2.88,2.38,0,0,.26,3.21,2.87,3.72,2.61.51,7.22,4.93,7.95,4.12.73-.82,2.03-1.14,2.03-1.14Z"/><polygon class="cls-41" points="192.23 293.86 189.88 289.44 187.89 285.23 188.93 285.15 190.76 287.93 195.63 290.78 194.49 291.8 192.23 293.86"/><polygon class="cls-41" points="192.43 287.27 191.82 283.2 192.8 282.83 194.13 286.75 196.86 290.21 194.49 291.8 192.43 287.27"/><polygon class="cls-41" points="194.59 282.73 194.87 286.01 194.75 288.21 196.11 290.23 198.39 289.58 196.86 287.45 195.76 283.19 194.59 282.73"/><polygon class="cls-41" points="197.87 283.16 197.37 289.08 198.42 290.44 200.01 290.09 199.25 287.36 198.63 283.86 197.87 283.16"/><path class="cls-41" d="M203.79,302.42c-1.17-2.38-3.96-2.92-3.96-2.92,0,0-6.92-1.51-7.67-2.87-.75-1.36-3.38-2.95-3.38-2.95,0,0-.77-1.2,2.04-.62,1.84.38,3.3,1.26,3.3,1.26,0,0,4.24-.53,5.37,0,2.33,1.12,5.06,6.95,5.06,6.95,0,0-.6,1.44-.75,1.13Z"/><path class="cls-145" d="M155.69,336.77s-.56,8.17,23.93,10.05c24.49,1.87,23.96-3.71,23.96-3.71l1.99-5.86-8.57-16.27-8,3.64-.04,1.37s-1.33,1.24-2.88.82c-1.55-.42-8.95-.2-22.46-3.24-6.23-1.4-7.83,11.63-7.93,13.21Z"/><path class="cls-49" d="M163.62,323.56c.27.06.54.12.8.18-2.06,3.31-3.21,7.81-3.38,8.69,0,0-1.62,8.02,22.5,12.84,4.35.87,7.9,1.39,10.8,1.67-3.4.34-8.14.39-14.72-.12-24.49-1.87-23.93-10.05-23.93-10.05.1-1.58,1.71-14.61,7.93-13.21Z"/><path class="cls-41" d="M196.56,322.62s13.89-10.94,3.33-25.67c-3.14-4.38,1.34-1.24,5.43,2.12,4.08,3.36,10.86,16.41,7.08,26.59-3.77,10.18-6.07,13.71-10.51,14.1-4.44.39-5.33-17.14-5.33-17.14Z"/><path class="cls-148" d="M187.67,333.25l-.81-4.53-.21-1.83c1.3.04,2.32-.9,2.32-.9l-.06,3.48.71,4.11,2.71,5.05-4.65-5.38Z"/><path class="cls-145" d="M165.52,388.62l-28.62-.62-11.9-39.85s-7.72-24.09,7.08-24.4c14.79-.31,31.84-.31,31.84-.31,0,0,9.97,8.65,1.61,65.18Z"/><path class="cls-41" d="M139.47,293.54s15.05,14,13.18,18.85c-.08.21-2.45,2.49-2.71,4.79-.25,2.16.78,3.44.78,4.31,0,.28.76,2.14.84,2.69.36,2.49-.92,4.55-1.97,4.3-1.29-.31-6.73-2.47-7.68-2.98-.65-.36-1.27-.42-1.43-1.45-.35-2.2-1.51-5.95-2.61-7.02-3.24-3.12-12.36-6.12-9.82-15.08.74-2.61,10.14-9.02,11.43-8.4Z"/><polygon class="cls-150" points="149.16 328.44 148.46 333.38 139.36 325.83 140.42 323.99 149.16 328.44"/><polygon class="cls-149" points="151.83 325.26 151.57 323.59 153.23 326.45 153.31 331.68 149.72 328.55 151.83 325.26"/><path class="cls-17" d="M152.49,312.12s-.71.16-2.08.35c-.45.06-1.77.26-2.37.53-2.65,1.2-2.41,1.35-4.16,1.75-1.99.47-6.38.62-6.38.62,0,0,2.21.83,3.09,1.19,1.64.65,3.05.42,4.17.04,4.86-1.64,4.86-1.17,5.35-1.58.03-.03.18-.4,2.37-2.9Z"/><path class="cls-41" d="M144.82,299.98c.24.29,3.4,1.87,3.98,2.17.58.29,1.35.64,1.41.88.06.23,0,1.11-.06,1.46-.06.35-.23,1.75-1.4.7-1.17-1.05-3.92-5.21-3.92-5.21Z"/><path class="cls-158" d="M127.21,301.51c.88-4.74,7.14-9.19,14.34-8.89,0,0,.64,1.05-.06,2.98,0,0-4.86-.93-8.19,2.75-3.5,3.86.83,3.39.76,5.13-.06,1.46-.18,2.76-.18,2.76l1.32,2.68-.92,1.01s-2.59-1.84-2.5-.7c.11,1.38,1.92,2.88,2.15,3.12.24.24.63.61.57.79-.05.14,1.4,1.23,3.1,3.74-.47.43-1.65.29-3.19-.89-3.49-2.65-8.27-8.7-7.2-14.48Z"/><path class="cls-41" d="M131.86,308.9c-.91.73-1.05,2.05-.32,2.96.73.91,2.05,1.05,2.96.32"/><path class="cls-17" d="M147.35,305.45s1.45-2.08,1.68-2.19c.24-.12.76-.47.94-.29.18.18.31.91-.16,2.22-.12.32-.39-.26-2.46.26Z"/><rect class="cls-12" x="157.4" y="511.64" width="7.37" height="11.23"/><rect class="cls-12" x="105.09" y="511.64" width="5.97" height="11.23"/><path class="cls-144" d="M157.75,526.15h5.38v-1.64l2.34,1.64h13.58s-.23-2.22-9.36-2.57c-2.34-.09-3.98-3.28-3.98-3.28,0,0-1.17-1.05-2.92,1.4-.46.64-5.38-.59-5.38-.59,0,0-.47,3.28.35,5.03Z"/><path class="cls-158" d="M164.55,387.69l.64,60.86-13.28,9.43s-5.68-19.55-6.65-38.09c-.96-18.53,19.29-32.2,19.29-32.2Z"/><path class="cls-15" d="M164.55,387.69l-28.3,66.73-5.14,7.11-19.84,58.82-7.41-3.07s1.79-31.19,6.39-45.24c4.69-14.35,9.46-23.26,9.46-23.26l18.16-62.94,26.69,1.85Z"/><path class="cls-158" d="M154.47,520.6c-2.33-11.94-3.92-35.02-4.09-42.69-.32-14.21.67-24.42.67-24.42l14.15-4.94v70.26s-10.73,1.79-10.73,1.79Z"/><path class="cls-144" d="M111.86,528.2h-3.64l-1.15-1.15-.5-2.81-1.16,1.16-3.81-3.81c.66-1.82,3.31-3.81,3.31-3.81,0,0,2.62,4.35,3.39,4.22,2.98-.5,3.06,1.08,3.06,1.08,0,0-1.09,3.4.49,5.12Z"/><path class="cls-144" d="M108.07,524.08c.7.78,1.67,1.56,2.81,1.61,9.13.35,9.36,2.57,9.36,2.57h-12.17v-4.18Z"/><path class="cls-152" d="M66.87,412.28l28.42-56.72s23.86,0,32.02-.82c22.87-2.29,50.91-16.49,50.91-16.49l-22.46,61.18s-44.75,10.27-55.66,10.2c-17.85-.13-33.23,2.66-33.23,2.66Z"/><path class="cls-145" d="M126.92,346.92l-16.72,25.64-2.25.31.64,2.16-12.11-.93-2.68-10.5,23.48-34.6s7.32-6.65,19.3-4.94c8.68,1.24-8.36,20.7-9.65,22.86Z"/><path class="cls-41" d="M107.95,374.1l12.42,34.51s-2.7.82-4.27-.57c-4.26-3.79-11.67-14.09-14.26-19.73-3.54-7.72-5.47-16.06-5.47-16.06l11.58,1.85Z"/><polygon class="cls-41" points="116.71 408.5 126.13 411.99 127.03 405.13 125.07 405.89 122.73 404 119.14 407.25 116.71 408.5"/><polygon class="cls-31" points="730.36 136.93 730.36 121.94 715.37 121.94 730.36 136.93"/><path class="cls-31" d="M692.97,78.91h42.23c3.2,0,5.8,2.6,5.8,5.8v34.82c0,3.2-2.6,5.8-5.8,5.8h-42.23c-3.2,0-5.8-2.6-5.8-5.8v-34.82c0-3.2,2.6-5.8,5.8-5.8Z"/><path class="cls-35" d="M704.89,106.19c-2.37,0-4.29-1.93-4.29-4.29s1.93-4.29,4.29-4.29,4.29,1.93,4.29,4.29-1.93,4.29-4.29,4.29ZM704.89,99.75c-1.18,0-2.15.96-2.15,2.15s.96,2.15,2.15,2.15,2.15-.96,2.15-2.15-.96-2.15-2.15-2.15Z"/><path class="cls-35" d="M719.19,98.33c-2.37,0-4.29-1.93-4.29-4.29s1.93-4.29,4.29-4.29,4.29,1.92,4.29,4.29-1.92,4.29-4.29,4.29ZM719.19,91.89c-1.18,0-2.15.96-2.15,2.14s.96,2.15,2.15,2.15,2.15-.96,2.15-2.15-.96-2.14-2.15-2.14Z"/><path class="cls-35" d="M719.19,114.07c-2.37,0-4.29-1.93-4.29-4.29s1.93-4.29,4.29-4.29,4.29,1.92,4.29,4.29-1.92,4.29-4.29,4.29ZM719.19,107.63c-1.18,0-2.15.96-2.15,2.15s.96,2.15,2.15,2.15,2.15-.96,2.15-2.15-.96-2.15-2.15-2.15Z"/><rect class="cls-35" x="706.98" y="96.54" width="10.12" height="2.15" transform="translate(56.64 392.53) rotate(-32.03)"/><rect class="cls-35" x="710.97" y="101.13" width="2.15" height="10.12" transform="translate(244.58 653.69) rotate(-57.99)"/><path class="cls-39" d="M624.69,427.09l-4.99-21.79c-6.91,1.58-13.25,4.65-18.67,8.86l13.71,17.64c2.88-2.24,6.26-3.88,9.94-4.72Z"/><path class="cls-143" d="M636.06,476.74l4.99,21.79c6.91-1.58,13.24-4.65,18.65-8.86l-13.71-17.64c-2.88,2.24-6.25,3.88-9.93,4.72Z"/><path class="cls-14" d="M614.75,431.81l-13.71-17.64c-5.48,4.27-10.01,9.7-13.21,15.93l19.89,10.2c1.7-3.32,4.11-6.21,7.03-8.49Z"/><path class="cls-40" d="M653.03,463.53c-1.7,3.32-4.12,6.21-7.04,8.48l13.71,17.64c5.48-4.27,10.01-9.7,13.21-15.93l-19.89-10.2Z"/><path class="cls-57" d="M607.71,440.3l-19.89-10.2c-3.1,6.04-4.96,12.83-5.22,20.03l22.33.83c.14-3.83,1.13-7.45,2.78-10.67Z"/><path class="cls-37" d="M653.03,463.53l19.89,10.2c3.1-6.04,4.96-12.83,5.22-20.03l-22.33-.84c-.14,3.83-1.13,7.45-2.78,10.67Z"/><path class="cls-18" d="M604.9,451.91c0-.32.01-.64.02-.95l-22.33-.83c-.02.59-.05,1.19-.05,1.79,0,6.59,1.33,12.87,3.74,18.58l20.6-8.68c-1.28-3.04-1.99-6.39-1.99-9.9Z"/><path class="cls-50" d="M655.84,451.91c0,.21-.01.42-.02.63l22.34.56c0-.4.03-.79.03-1.19,0-6.59-1.33-12.87-3.75-18.58l-20.6,8.68c1.28,3.04,2,6.38,2,9.89Z"/><path class="cls-37" d="M655.81,452.87l22.33.84c0-.2,0-.4.02-.6l-22.34-.56c0,.11,0,.21,0,.32Z"/><path class="cls-151" d="M655.81,452.87l22.33.84c0-.2,0-.4.02-.6l-22.34-.56c0,.11,0,.21,0,.32Z"/><path class="cls-159" d="M630.37,426.45c2.5,0,4.92.37,7.2,1.04l6.32-21.44c-4.29-1.26-8.83-1.95-13.52-1.95-3.67,0-7.24.43-10.67,1.21l4.99,21.79c1.83-.42,3.73-.65,5.68-.65Z"/><path class="cls-142" d="M630.37,477.38c-2.5,0-4.92-.37-7.2-1.04l-6.32,21.44c4.29,1.26,8.83,1.95,13.52,1.95,3.68,0,7.25-.43,10.69-1.21l-4.99-21.79c-1.83.42-3.73.65-5.69.65Z"/><path class="cls-28" d="M606.9,461.81l-20.6,8.68c2.73,6.48,6.86,12.23,11.99,16.88l15-16.57c-2.73-2.48-4.93-5.54-6.39-8.99Z"/><path class="cls-8" d="M653.84,442.02l20.6-8.68c-2.73-6.48-6.85-12.23-11.99-16.88l-15,16.57c2.73,2.48,4.93,5.54,6.38,8.99Z"/><path class="cls-140" d="M613.28,470.8l-15,16.57c5.26,4.76,11.58,8.36,18.56,10.41l6.32-21.44c-3.72-1.1-7.09-3.01-9.88-5.55Z"/><path class="cls-56" d="M647.46,433.03l15-16.57c-5.26-4.76-11.58-8.36-18.56-10.41l-6.32,21.44c3.72,1.1,7.09,3.01,9.89,5.55Z"/><rect class="cls-52" x="561.14" y="375.99" width="50.85" height="50.85"/><rect class="cls-62" x="566.17" y="381.02" width="40.8" height="40.79"/><path class="cls-52" d="M581.26,393.59c0,2.01-1.62,3.63-3.63,3.63s-3.63-1.63-3.63-3.63,1.63-3.63,3.63-3.63,3.63,1.63,3.63,3.63Z"/><polygon class="cls-52" points="590.93 401.16 597.45 409.39 603.96 417.62 590.93 417.62 577.91 417.62 584.42 409.39 590.93 401.16"/><polygon class="cls-52" points="578.7 406.06 583.28 411.84 587.85 417.62 578.7 417.62 569.56 417.62 574.13 411.84 578.7 406.06"/><path class="cls-147" d="M740.17,474.83c5.49,5.4,14.4,5.23,19.91-.37,5.51-5.61,5.54-14.52.05-19.92-5.48-5.4-14.4-5.23-19.91.38-5.52,5.6-5.54,14.51-.05,19.91Z"/><path class="cls-147" d="M760.37,475.19c5.49,5.4,14.4,5.23,19.91-.37,5.51-5.61,5.54-14.52.05-19.92-5.48-5.4-14.4-5.23-19.91.38-5.52,5.6-5.53,14.51-.05,19.91Z"/><path class="cls-147" d="M743.88,451.4c6.93,6.81,18.18,6.61,25.14-.47,6.96-7.07,6.99-18.33.06-25.15-6.92-6.81-18.18-6.61-25.14.47-6.96,7.07-6.99,18.33-.07,25.15Z"/><path class="cls-17" d="M744.01,496.11s-.29,2.38-11.83,1.28c-11.53-1.09-28.21-5.56-28.21-5.56l26.86.04s10.26.5,13.17,4.24Z"/><path class="cls-17" d="M712.97,493.54c-5.5-.35-8.04,2.25-10.27,2.97-2.24.71-4.51,1.88-4.5,1.85,1.37-2.27,3.16-2.22,4.1-2.93.94-.71.69-.34-1.26-.61-1.11-.16-3.2,1.68-4.67,2.68-1.29.86-2.06.89-2.06.89,0,0,1.55-1.89,3.47-3.38,2.32-1.78,5.13-3.23,5.79-3.44,1.2-.38,4.89-.28,7.49.24,2.93.58,5.87,1.97,1.91,1.72Z"/><path class="cls-17" d="M703.86,491.71s-4.28.8-5.06,1.31c-.54.35-2.84,2.48-2.84,2.48,0,0,1.59-.16,2.56-.95.96-.79,5.34-2.83,5.34-2.83Z"/><path class="cls-58" d="M739.25,490.77s10.61,1.32,9.49,7.59c-.64,3.56-3.14,4.66-6.35,4.21-5.95-.85-12.67-2.14-12.67-2.14l-2.43-10,11.95.34Z"/><path class="cls-58" d="M739.54,495.25l4.84-34.76s.44-7.46,3.1-7.07c3.84.55,9.78,11.86,9.92,14.19.28,4.76-6.61,29.25-7.5,34.13-.61,3.36-3.58-.69-7-1.32-6.37-1.15-3.36-5.18-3.36-5.18Z"/><polygon class="cls-41" points="883.28 451.71 893.63 433.58 905.73 434.35 911.72 436.12 898.32 438.1 889.77 455.03 883.28 451.71"/><path class="cls-42" d="M895.22,430.7l1.57.52.73,2.04,9.78.41,7.72,2.13s-.21.59-.59.76c-1.46.62-7.58.46-7.58.46,0,0,.78-1.64.13-2.05-.66-.42-8.22-.61-10.05-.51-3.15.17-4.82.82-4.65.41.26-.58,2.94-4.16,2.94-4.16Z"/><path class="cls-13" d="M831.73,485.95l28.41,3.22,25.23-44.61,8.49,4.23-25.53,54.1s-1.95,3.39-10.55,2.65c-8.37-.72-42.24-2.72-45.98-4.12-8.88-3.32,20.83-7.61,19.93-15.46Z"/><path class="cls-147" d="M746.65,453.34c5.48,5.4,14.4,5.23,19.91-.37,5.52-5.6,5.54-14.52.05-19.91-5.48-5.4-14.4-5.23-19.91.37-5.51,5.6-5.53,14.52-.05,19.91Z"/><path class="cls-147" d="M731.46,453.97c4.22,4.14,10.99,4.09,15.13-.13l-1.74-5.47c4.14-4.21,4.09-10.99-.13-15.13l-2.86-2.82c-4.21-4.15-10.99-4.09-15.13.12l-1.87,1.9c-4.15,4.22-4.09,10.99.12,15.14l6.48,6.38Z"/><path class="cls-41" d="M723.24,439.88c.71.68,1.5,1.33,2.33,1.93,5.65,4.05,12.3,4.73,15.96,1.92,2.31,2.09,4.75,3.6,6.97,4.74,2.53,1.29,6.79,1.04,6.79,1.04,3.96,2.81,6.29,14.13-2.75,18.58-5.43,2.67-6.38-3.71-5.73-8.14.32-2.08.49-4.41-.06-5.32-1.93-3.18-3.35-3.21-5.79-3.67-3.93-.29-6.49,2.38-6.49,2.38-.26.25-.59.38-.93.37-.65-.34-1.27-.78-1.82-1.33l-6.29-6.19c-1.74-1.71-2.47-4.06-2.21-6.32Z"/><path class="cls-147" d="M758.42,456.89c4.81,6.44,14.03,7.68,20.62,2.78,6.58-4.91,8.01-14.11,3.2-20.56-4.81-6.43-14.04-7.67-20.61-2.77-6.57,4.92-8.01,14.12-3.2,20.55Z"/><polygon class="cls-41" points="860.54 442.13 860.89 427.65 863.82 424.16 871.64 419.57 877.48 420.58 867.26 428.31 866.62 443.5 860.54 442.13"/><path class="cls-42" d="M861.32,424.48l2.63-1.91.82.63,7.25-4.67s6.62-1.78,7.91-.29c.41.48-.65,1.3-2.11,2.41-1.17.88-1.88,1.22-1.88,1.22,0,0-.31-1.13-2.94-1.54-.84-.13-6.01,3.35-7.79,4.25-3.2,1.62-4.45,3.88-4.61,3.67-.43-.55.72-3.78.72-3.78Z"/><path class="cls-36" d="M803.16,509.4l6.42-.26,52.11-3.71s4.68,1.41,7.59-5.98c4.15-10.52-1.77-63-1.77-63l-7.72.18-3.8,49.54s-36.58-11.69-44.87-8.8c-9.69,3.37-15.27,7.97-27.49,20.68-5.38,5.6,1.75,10.44,1.75,10.44l17.78.92Z"/><path class="cls-42" d="M744.49,456.16s8.8-11.01,16.14-4.4c7.34,6.6,32.99,27.2,40.76,29.58l1.78,28.9c-21.18,1.4-38.57-9.42-40.01-11.59-4.67-7-21.6-33.68-18.67-42.49Z"/><path class="cls-58" d="M770,491.79c-2.07-2.83-6.34-8.9-10.47-15.69-5.22-8.58-13.19-7.15-8.92,1.27,4.51,8.89,10.15,17.68,12.55,21.28,1.44,2.16,15.51,12.99,36.69,11.59l-2.07-2.93c-15.15-1.44-26.44-13.67-27.78-15.51Z"/><path class="cls-41" d="M757.04,503.26s3.19,3.42-11.23,1.96c-10.24-1.04-10-.33-35.25-6.85l33.54.54s9.27.03,12.94,4.34Z"/><path class="cls-41" d="M721.81,500.49c-6.88-.5-10.03,2.42-12.82,3.19-2.79.77-5.63,2.05-5.61,2.03,1.7-2.56,3.93-2.48,5.1-3.26,1.17-.78.85-.37-1.59-.72-1.38-.2-3.98,1.86-5.83,2.96-1.59.96-2.55.98-2.55.98,0,0,1.92-2.12,4.32-3.77,2.89-1.99,6.39-3.58,7.21-3.8,1.5-.42,6.11-.22,9.36.41,3.67.72,7.35,2.35,2.4,1.99Z"/><path class="cls-17" d="M710.41,498.23s-5.33.83-6.31,1.4c-.67.39-3.53,2.76-3.53,2.76,0,0,1.99-.15,3.19-1.04,1.2-.89,6.65-3.12,6.65-3.12Z"/><path class="cls-42" d="M749.52,497.54l-4.77-39.29s3.07-3.88,5.77-2.52c2.89,1.44,8.66,5.41,8.66,5.41,0,0,4.83,13.64,6.13,25.61,2.16,19.84,1.11,20.28-6.13,22-7.57,1.8-21.31-.04-21.31-.04l-3.04-11.23,14.69.06Z"/><path class="cls-54" d="M725.99,506.97s.02-.03.03-.05l-.03-1.52h-62.83v1.52s0,.03,0,.05l.16.28c.81,1.31,2.25,1.55,3.91,1.55h54.68c1.66,0,3.11-.24,3.92-1.55l.16-.28Z"/><path class="cls-157" d="M710.85,507.23s-.01.03,0,.04l.16.23c.25.34.56.59.92.77h9.55c1.6,0,2.99-.19,3.77-1.25l.15-.23s.02-.02.03-.04v-.75h-14.57v1.23Z"/><rect class="cls-157" x="670.97" y="505.75" width="31.4" height="1.07"/><path class="cls-155" d="M710.5,505.35l-8.15-30.88c-.21-.82-1.05-1.48-1.86-1.48h-44.09c-.81,0-1.3.66-1.08,1.48l8.14,30.88h47.03Z"/><path class="cls-157" d="M685.57,489.17c.42,1.57-.53,2.85-2.1,2.85s-3.19-1.28-3.61-2.85c-.41-1.58.52-2.86,2.1-2.86s3.19,1.28,3.61,2.86Z"/></svg>