<?xml version="1.0" encoding="UTF-8"?><svg id="_ÎÓÈ_1" xmlns="http://www.w3.org/2000/svg" viewBox="0 0 2326.79 2968.31"><defs><style>.cls-1{fill:#00328e;}.cls-2{fill:#83a7db;stroke-width:34.8px;}.cls-2,.cls-3{stroke:#00328e;stroke-linecap:round;stroke-linejoin:round;}.cls-3{fill:#fff;stroke-width:34.8px;}.cls-4{opacity:.5;}</style></defs><path class="cls-3" d="M2172.83,2823.54H156.25c-18.4,0-33.31-21.09-33.31-47.1V191.87c0-26.02,14.91-47.1,33.31-47.1h2016.58c18.4,0,33.31,21.09,33.31,47.1v2584.57c0,26.02-14.91,47.1-33.31,47.1Z"/><line class="cls-3" x1="120.65" y1="411.89" x2="2203.85" y2="411.89"/><rect class="cls-2" x="125.23" y="416.83" width="2078.61" height="414.64"/><line class="cls-3" x1="704.65" y1="986.15" x2="1619.85" y2="986.15"/><line class="cls-3" x1="704.65" y1="1079.1" x2="1619.85" y2="1079.1"/><line class="cls-3" x1="704.65" y1="1181.07" x2="1619.85" y2="1181.07"/><line class="cls-3" x1="704.65" y1="1274.01" x2="1619.85" y2="1274.01"/><line class="cls-3" x1="704.65" y1="1375.98" x2="1619.85" y2="1375.98"/><line class="cls-3" x1="704.65" y1="1468.93" x2="1619.85" y2="1468.93"/><line class="cls-3" x1="704.65" y1="1570.89" x2="1619.85" y2="1570.89"/><line class="cls-3" x1="704.65" y1="1663.84" x2="1619.85" y2="1663.84"/><line class="cls-3" x1="704.65" y1="1765.8" x2="1619.85" y2="1765.8"/><line class="cls-3" x1="704.65" y1="1858.75" x2="1619.85" y2="1858.75"/><line class="cls-3" x1="704.65" y1="1960.71" x2="1619.85" y2="1960.71"/><line class="cls-3" x1="704.65" y1="2053.66" x2="1619.85" y2="2053.66"/><line class="cls-3" x1="704.65" y1="2155.63" x2="1619.85" y2="2155.63"/><line class="cls-3" x1="704.65" y1="2248.57" x2="1619.85" y2="2248.57"/><line class="cls-3" x1="704.65" y1="2350.54" x2="1619.85" y2="2350.54"/><line class="cls-3" x1="704.65" y1="2443.49" x2="1619.85" y2="2443.49"/><g class="cls-4"><rect class="cls-1" x="366.16" y="429.07" width="497.69" height="402.4"/></g><circle class="cls-3" cx="254.25" cy="287.25" r="38.08"/><circle class="cls-3" cx="404.24" cy="287.25" r="38.08"/><circle class="cls-3" cx="554.24" cy="287.25" r="38.08"/></svg>