<?xml version="1.0" encoding="UTF-8"?><svg id="_ÎÓÈ_1" xmlns="http://www.w3.org/2000/svg" viewBox="0 0 3529.8 3304.97"><defs><style>.cls-1,.cls-2,.cls-3,.cls-4{stroke-width:34.8px;}.cls-1,.cls-2,.cls-3,.cls-4,.cls-5{stroke-linecap:round;stroke-linejoin:round;}.cls-1,.cls-2,.cls-5{stroke:#03338f;}.cls-1,.cls-4{fill:#fff;}.cls-2,.cls-3{fill:#83a7db;}.cls-3,.cls-4{stroke:#00328e;}.cls-6{fill:#347cd1;}.cls-5{fill:none;stroke-dasharray:139.22;stroke-width:31px;}</style></defs><circle class="cls-6" cx="1764.9" cy="1652.49" r="1044.13"/><path class="cls-5" d="M442.55,1157.43c-57.7,154.05-89.25,320.87-89.25,495.06,0,243.63,61.72,472.84,170.37,672.85"/><path class="cls-5" d="M2246.37,325.13c-150.25-54.51-312.39-84.24-481.47-84.24s-316.27,27.05-460.63,76.87"/><path class="cls-5" d="M2978.08,2374.57c126.01-211.26,198.41-458.22,198.41-722.08,0-174.19-31.55-341-89.24-495.05"/><path class="cls-5" d="M1274.93,2976.73c152.63,56.49,317.7,87.35,489.97,87.35s334.54-30.34,486.09-85.92"/><path class="cls-4" d="M2763.83,2892.46H747.25c-18.4,0-33.31-21.09-33.31-47.1v-1459.57c0-26.02,14.91-47.1,33.31-47.1h2016.58c18.4,0,33.31,21.09,33.31,47.1v1459.57c0,26.02-14.91,47.1-33.31,47.1Z"/><line class="cls-4" x1="713.94" y1="1605.81" x2="2797.14" y2="1605.81"/><rect class="cls-3" x="864.27" y="1719.06" width="1806.17" height="216.01"/><circle class="cls-4" cx="847.54" cy="1481.17" r="38.08"/><circle class="cls-4" cx="997.53" cy="1481.17" r="38.08"/><circle class="cls-4" cx="1147.53" cy="1481.17" r="38.08"/><line class="cls-4" x1="1790.34" y1="2323.93" x2="2148.31" y2="2323.93"/><line class="cls-4" x1="1790.34" y1="2446.39" x2="2148.31" y2="2446.39"/><line class="cls-4" x1="1790.34" y1="2586.13" x2="2148.31" y2="2586.13"/><line class="cls-4" x1="1790.34" y1="2725.87" x2="2148.31" y2="2725.87"/><line class="cls-4" x1="2244.23" y1="2323.93" x2="2602.2" y2="2323.93"/><line class="cls-4" x1="2244.23" y1="2446.39" x2="2602.2" y2="2446.39"/><line class="cls-4" x1="2244.23" y1="2586.13" x2="2602.2" y2="2586.13"/><line class="cls-4" x1="2244.23" y1="2725.87" x2="2602.2" y2="2725.87"/><line class="cls-4" x1="1734.93" y1="2133.6" x2="2650.13" y2="2133.6"/><line class="cls-4" x1="1734.93" y1="2226.55" x2="2650.13" y2="2226.55"/><rect class="cls-4" x="887.31" y="2240.75" width="744.76" height="485.75"/><path class="cls-4" d="M1371.2,2583.06c.52-56.67,45.11-128.87,67.38-161.5l.1-.1-327.47,57.62c20.78,27.47,50.3,72.26,49.99,105.93v141.49h209.84l.17-143.43Z"/><path class="cls-3" d="M1476.49,2190.3c13.97,31.33,24.84,63.99,22.79,96.57-5.5,87.26-70.96,164.79-156.86,204.36-63.19,29.11-134.14,39.53-192.15,13.42-46.81-21.07-79.98-66.53-102.44-116.88-36.36-81.53-28.3-172.29,13.7-245.13l77.77,174.36c8.19,18.36,26.21,30.17,46.47,30.33,23.17.13,55.99-3.75,92.21-20.43,35.12-16.18,59.89-39.1,75.44-57.24,13.42-15.58,16.75-37.32,8.49-55.82l-78.09-175.09c82.58,15.36,155.97,69.3,192.66,151.56Z"/><line class="cls-4" x1="2938" y1="448.14" x2="1922.3" y2="448.14"/><line class="cls-4" x1="2938" y1="744.23" x2="1922.3" y2="744.23"/><line class="cls-4" x1="2938" y1="1040.33" x2="1922.3" y2="1040.33"/><rect class="cls-3" x="2644.55" y="383.72" width="234.24" height="128.83" rx="29.89" ry="29.89" transform="translate(3209.8 -2313.53) rotate(90)"/><rect class="cls-3" x="2133.86" y="679.82" width="234.24" height="128.83" rx="29.89" ry="29.89" transform="translate(2995.22 -1506.75) rotate(90)"/><rect class="cls-3" x="2367.43" y="975.91" width="234.24" height="128.83" rx="29.89" ry="29.89" transform="translate(3524.88 -1444.22) rotate(90)"/><line class="cls-1" x1="1006.55" y1="964.06" x2="821.43" y2="964.06"/><circle class="cls-1" cx="821.43" cy="964.06" r="55.33"/><polyline class="cls-1" points="528.29 801.37 800.8 801.37 800.8 721.03 942.41 721.03"/><circle class="cls-2" cx="553.65" cy="797.85" r="60.86" transform="translate(-402.01 625.17) rotate(-45)"/><line class="cls-1" x1="913.93" y1="558.07" x2="728.81" y2="558.07"/><circle class="cls-1" cx="728.81" cy="558.07" r="55.33"/><path class="cls-2" d="M1078.37,812.26c.65,12.97,11.69,22.95,24.66,22.3l48.48-2.43c5.51-.28,10.45,3.13,12.38,8.31,5.04,13.49,11.24,26.62,18.6,39.25,2.78,4.77,2.29,10.75-1.41,14.84l-32.56,36c-8.71,9.63-7.96,24.5,1.67,33.21l67.18,60.76c9.63,8.71,24.49,7.96,33.2-1.67l32.56-36c3.7-4.09,9.6-5.17,14.62-2.88,13.3,6.06,26.99,10.92,40.91,14.58,5.34,1.4,9.23,5.98,9.51,11.49l2.43,48.48c.65,12.97,11.69,22.95,24.66,22.3l90.47-4.54c12.97-.65,22.95-11.69,22.3-24.66l-2.43-48.48c-.28-5.51,3.14-10.45,8.31-12.39,13.49-5.03,26.62-11.24,39.25-18.6,4.76-2.78,10.75-2.3,14.84,1.4l35.99,32.56c9.63,8.71,24.5,7.96,33.21-1.67l60.76-67.18c8.71-9.63,7.96-24.5-1.67-33.21l-36-32.56c-4.09-3.7-5.17-9.6-2.88-14.62,6.06-13.3,10.92-26.99,14.58-40.91,1.4-5.34,5.98-9.23,11.49-9.5l48.48-2.43c12.97-.65,22.95-11.69,22.3-24.66l-4.54-90.47c-.65-12.97-11.69-22.95-24.65-22.3l-48.49,2.43c-5.51.28-10.45-3.13-12.38-8.31-5.03-13.49-11.24-26.62-18.6-39.25-2.78-4.77-2.29-10.75,1.41-14.84l32.56-36c8.71-9.63,7.96-24.5-1.67-33.21l-67.18-60.76c-9.63-8.71-24.5-7.96-33.21,1.67l-32.56,36c-3.7,4.09-9.6,5.17-14.62,2.88-13.3-6.06-26.99-10.92-40.91-14.58-5.34-1.4-9.23-5.98-9.5-11.49l-2.43-48.48c-.65-12.97-11.69-22.95-24.65-22.3l-90.47,4.54c-12.97.65-22.95,11.69-22.3,24.66l2.43,48.48c.28,5.51-3.13,10.45-8.3,12.38-13.49,5.03-26.63,11.24-39.25,18.6-4.77,2.78-10.75,2.3-14.84-1.41l-36-32.56c-9.63-8.71-24.49-7.96-33.2,1.67l-60.76,67.18c-8.71,9.63-7.96,24.5,1.67,33.21l35.99,32.56c4.09,3.7,5.17,9.6,2.88,14.62-6.06,13.3-10.92,26.99-14.58,40.91-1.4,5.34-5.98,9.23-11.49,9.5l-48.48,2.43c-12.97.65-22.95,11.69-22.31,24.66l4.54,90.47ZM1290.08,647.49c56.93-62.94,154.11-67.82,217.05-10.89,62.94,56.93,67.82,154.11,10.89,217.05-56.93,62.94-154.11,67.82-217.05,10.89-62.94-56.93-67.82-154.11-10.89-217.05Z"/></svg>