<?xml version="1.0" encoding="UTF-8"?><svg id="_ÎÓÈ_1" xmlns="http://www.w3.org/2000/svg" viewBox="0 0 3529.8 3304.97"><defs><style>.cls-1{fill:#00328e;stroke:#fff;}.cls-1,.cls-2,.cls-3{stroke-width:34.8px;}.cls-1,.cls-2,.cls-3,.cls-4{stroke-linecap:round;stroke-linejoin:round;}.cls-2{fill:#83a7db;}.cls-2,.cls-3{stroke:#00328e;}.cls-5{fill:#347cd1;}.cls-3{fill:#fff;}.cls-4{fill:none;stroke:#03338f;stroke-dasharray:139.22;stroke-width:31px;}</style></defs><circle class="cls-5" cx="1743.99" cy="1696.32" r="1023.43"/><path class="cls-4" d="M3113.03,1696.32c0-387.28-160.81-737-419.3-986.03"/><path class="cls-4" d="M1163.33,2936.48c176.28,82.68,373.08,128.88,580.66,128.88,291.83,0,562.34-91.31,784.5-246.92"/><path class="cls-4" d="M742.58,762.81c-228.07,244.55-367.62,572.74-367.62,933.52,0,60.19,3.88,119.48,11.42,177.62"/><path class="cls-3" d="M2474.39,1527.28H1013.6c-13.33,0-24.13-13.03-24.13-29.11v-974.2c0-16.08,10.8-29.11,24.13-29.11h1460.79c13.33,0,24.13,13.03,24.13,29.11v974.2c0,16.08-10.8,29.11-24.13,29.11Z"/><line class="cls-3" x1="989.47" y1="680.33" x2="2498.51" y2="680.33"/><path class="cls-3" d="M1102.32,581.71c0-19.07,12.82-32.48,30.77-32.48s30.25,13.4,30.25,32.48-11.79,32.48-30.77,32.48c-17.95,0-30.25-13.91-30.25-32.48Z"/><path class="cls-3" d="M1218.76,581.71c0-19.07,12.82-32.48,30.77-32.48s30.25,13.4,30.25,32.48-11.79,32.48-30.77,32.48c-17.95,0-30.25-13.91-30.25-32.48Z"/><path class="cls-3" d="M2346.86,999.04h-1202.1c-19.05,0-34.5-14.99-34.5-33.47v-163.55c0-18.49,15.45-33.47,34.5-33.47h1202.1c19.05,0,34.5,14.99,34.5,33.47v163.55c0,18.49-15.45,33.47-34.5,33.47Z"/><line class="cls-3" x1="1112.89" y1="1289.91" x2="1427.84" y2="1289.91"/><line class="cls-3" x1="1112.89" y1="1350.58" x2="1427.84" y2="1350.58"/><line class="cls-3" x1="1112.89" y1="1419.81" x2="1427.84" y2="1419.81"/><rect class="cls-2" x="1213.77" y="1097.37" width="113.18" height="113.8"/><line class="cls-3" x1="1577.66" y1="1289.91" x2="1892.61" y2="1289.91"/><line class="cls-3" x1="1577.66" y1="1350.58" x2="1892.61" y2="1350.58"/><line class="cls-3" x1="1577.66" y1="1419.81" x2="1892.61" y2="1419.81"/><rect class="cls-2" x="1678.54" y="1097.37" width="113.18" height="113.8"/><line class="cls-3" x1="2049.5" y1="1289.91" x2="2364.45" y2="1289.91"/><line class="cls-3" x1="2049.5" y1="1350.58" x2="2364.45" y2="1350.58"/><line class="cls-3" x1="2049.5" y1="1419.81" x2="2364.45" y2="1419.81"/><rect class="cls-2" x="2150.39" y="1097.37" width="113.18" height="113.8"/><path class="cls-3" d="M1969.31,2818.37H529.23c-13.23,0-23.96-10.74-23.96-23.99v-1049.54c0-13.25,10.73-23.99,23.96-23.99h1440.08c13.23,0,23.96,10.74,23.96,23.99v1049.54c0,13.25-10.73,23.99-23.96,23.99Z"/><path class="cls-3" d="M610.37,2238.78v-214.73h1178.71v214.73H610.37Z"/><line class="cls-3" x1="1550.07" y1="2353.58" x2="1738.65" y2="2353.58"/><line class="cls-3" x1="1040.94" y1="2353.58" x2="1508.04" y2="2353.58"/><line class="cls-3" x1="1040.94" y1="2463.61" x2="1671.39" y2="2463.61"/><line class="cls-3" x1="1461.8" y1="2573.64" x2="1713.43" y2="2573.64"/><line class="cls-3" x1="1040.94" y1="2573.64" x2="1411.36" y2="2573.64"/><line class="cls-3" x1="1040.94" y1="2683.66" x2="1535.36" y2="2683.66"/><polyline class="cls-2" points="1429.02 2231.5 1293.57 2125.77 1250.88 2157.65 1156.46 2072.94 995.22 2231.5"/><rect class="cls-2" x="618.78" y="2372.2" width="311.73" height="292.84"/><line class="cls-3" x1="509.12" y1="1898.38" x2="1988.72" y2="1898.38"/><path class="cls-1" d="M1923.94,1770.06h-22.42c-.96,0-1.87.42-2.5,1.15l-12.94,15.15c-1.31,1.54-3.69,1.54-5,0l-12.94-15.15c-.62-.73-1.54-1.15-2.5-1.15h-22.42c-2.81,0-4.32,3.3-2.5,5.43l25.49,29.85c1.05,1.23,1.05,3.05,0,4.28l-25.86,30.28c-1.84,2.16-.28,5.48,2.56,5.43l22.76-.4c.94-.02,1.83-.44,2.44-1.15l12.96-15.17c1.31-1.54,3.69-1.54,5,0l12.94,15.15c.62.73,1.54,1.15,2.5,1.15h22.42c2.81,0,4.32-3.3,2.5-5.43l-25.49-29.84c-1.05-1.23-1.05-3.05,0-4.28l25.49-29.85c1.82-2.14.31-5.43-2.5-5.43Z"/><rect class="cls-2" x="898.01" y="1776.88" width="834.09" height="65.01" rx="30.16" ry="30.16"/><ellipse class="cls-3" cx="596.04" cy="1809.38" rx="28.78" ry="28.74"/><ellipse class="cls-3" cx="706.84" cy="1809.38" rx="28.78" ry="28.74"/><ellipse class="cls-3" cx="814.31" cy="1809.38" rx="28.78" ry="28.74"/><rect class="cls-3" x="2173.02" y="1877.88" width="981.83" height="721.8"/><polyline class="cls-3" points="2722.27 2352.83 2769.05 2292.27 2769.05 2473.53"/><line class="cls-3" x1="2722.27" y1="2473.53" x2="2815.9" y2="2473.53"/><polyline class="cls-3" points="2933 2068.86 2979.78 2008.3 2979.78 2189.56"/><line class="cls-3" x1="2933" y1="2189.56" x2="3026.63" y2="2189.56"/><polyline class="cls-3" points="2934.92 2348.12 2981.7 2287.56 2981.7 2468.82"/><line class="cls-3" x1="2934.92" y1="2468.82" x2="3028.55" y2="2468.82"/><polyline class="cls-3" points="2299.31 2064.58 2346.09 2004.02 2346.09 2185.28"/><line class="cls-3" x1="2299.31" y1="2185.28" x2="2392.94" y2="2185.28"/><path class="cls-3" d="M2592.37,2138.49c0,28.66-26.56,51.69-56.25,45.89-9.2-1.8-17.19-6.43-23.39-12.86-8.78-9.09-13.98-21.77-13.98-35.04h0v-85.65c0-28.94,26.26-51.75,56.25-45.89,22.23,4.34,37.37,25.25,37.37,47.9h0v85.65Z"/><path class="cls-3" d="M2814.76,2138.49c0,28.66-26.56,51.69-56.25,45.89-9.2-1.8-17.19-6.43-23.39-12.86-8.78-9.09-13.98-21.77-13.98-35.04h0v-85.65c0-28.94,26.26-51.75,56.25-45.89,22.23,4.34,37.37,25.25,37.37,47.9h0v85.65Z"/><path class="cls-3" d="M2392.94,2426.74c0,28.66-26.56,51.69-56.25,45.89-9.2-1.8-17.19-6.43-23.39-12.86-8.78-9.09-13.98-21.77-13.98-35.04h0v-85.65c0-28.94,26.26-51.75,56.25-45.89,22.23,4.34,37.37,25.25,37.37,47.9h0v85.65Z"/><path class="cls-3" d="M2600.19,2426.1c0,28.66-26.56,51.69-56.25,45.89-9.2-1.8-17.19-6.43-23.39-12.86-8.78-9.09-13.98-21.77-13.98-35.04h0v-85.65c0-28.94,26.26-51.75,56.25-45.89,22.23,4.34,37.37,25.25,37.37,47.9h0v85.65Z"/><path class="cls-4" d="M2225.46,388.88c-150.25-54.51-312.39-84.24-481.47-84.24s-316.27,27.05-460.63,76.87"/></svg>